<svg width="460" height="421" viewBox="0 0 460 421" fill="none" xmlns="http://www.w3.org/2000/svg">
<g clip-path="url(#clip0)">
<g opacity="0.5">
<path opacity="0.5" d="M219.659 102.006C243.09 102.006 262.084 83.0235 262.084 59.608C262.084 36.1925 243.09 17.2105 219.659 17.2105C196.228 17.2105 177.234 36.1925 177.234 59.608C177.234 83.0235 196.228 102.006 219.659 102.006Z" fill="url(#paint0_linear)"/>
</g>
<path d="M219.743 100.838C242.678 100.838 261.27 82.258 261.27 59.3385C261.27 36.4191 242.678 17.8392 219.743 17.8392C196.809 17.8392 178.217 36.4191 178.217 59.3385C178.217 82.258 196.809 100.838 219.743 100.838Z" fill="#00796B"/>
<path d="M242.588 63.4307C242.588 77.2339 232.662 84.0316 219.777 84.0316C206.892 84.0316 195.922 77.2395 195.922 63.4307C195.922 49.6219 206.369 38.4345 219.255 38.4345C232.14 38.4345 242.588 49.6219 242.588 63.4307Z" fill="#333333"/>
<path d="M219.777 101.001C227.892 101.014 235.831 98.64 242.605 94.1749C241.071 85.8166 235.252 85.3226 235.252 85.3226H203.139C203.139 85.3226 197.646 85.7717 195.927 93.462C202.907 98.3762 211.239 101.01 219.777 101.001Z" fill="white"/>
<path opacity="0.1" d="M212.885 75.1457H225.731V85.7717C225.731 86.5712 225.573 87.3627 225.266 88.1008C224.958 88.8389 224.508 89.509 223.94 90.0725C223.373 90.6359 222.699 91.0816 221.959 91.384C221.218 91.6863 220.425 91.8393 219.625 91.8341H218.906C217.305 91.8223 215.774 91.1783 214.646 90.0427C213.518 88.9071 212.885 87.3718 212.885 85.7717V75.1457Z" fill="black"/>
<path d="M214.008 74.6573H224.54C224.847 74.6573 225.141 74.7792 225.358 74.996C225.575 75.2129 225.697 75.507 225.697 75.8137V85.3227C225.697 86.9305 225.058 88.4725 223.921 89.6094C222.783 90.7464 221.24 91.3851 219.631 91.3851H218.912C217.31 91.3747 215.777 90.7314 214.648 89.5956C213.519 88.4598 212.885 86.9237 212.885 85.3227V75.8305C212.88 75.5267 212.996 75.2333 213.206 75.0137C213.416 74.7942 213.704 74.6662 214.008 74.6573Z" fill="#72351C"/>
<path opacity="0.1" d="M212.896 79.9956C217.037 81.5411 221.594 81.5531 225.742 80.0293V78.4519H212.896V79.9956Z" fill="black"/>
<path d="M219.339 80.8489C229.505 80.8489 237.746 72.6132 237.746 62.454C237.746 52.2948 229.505 44.0591 219.339 44.0591C209.173 44.0591 200.932 52.2948 200.932 62.454C200.932 72.6132 209.173 80.8489 219.339 80.8489Z" fill="#72351C"/>
<path opacity="0.1" d="M198.123 63.6608C198.123 63.6608 209.588 62.2743 218.272 51.1599C218.272 51.1599 229.736 63.7731 237.723 62.3866C237.723 62.3866 242.357 57.5254 237.723 52.6643C233.089 47.8032 229.5 41.6734 223.366 42.4817C217.233 43.29 209.7 43.6381 206.459 46.5345C203.218 49.431 198.123 63.6608 198.123 63.6608Z" fill="black"/>
<path d="M198.123 63.4307C198.123 63.4307 209.588 62.0442 218.272 50.9298C218.272 50.9298 229.736 63.5429 237.723 62.1564C237.723 62.1564 242.357 57.2953 237.723 52.4341C233.089 47.573 229.5 41.4432 223.366 42.2515C217.233 43.0599 209.7 43.4079 206.459 46.3044C203.218 49.2009 198.123 63.4307 198.123 63.4307Z" fill="#333333"/>
<path d="M200.921 65.6479C201.867 65.6479 202.634 64.2104 202.634 62.4371C202.634 60.6638 201.867 59.2263 200.921 59.2263C199.975 59.2263 199.208 60.6638 199.208 62.4371C199.208 64.2104 199.975 65.6479 200.921 65.6479Z" fill="#72351C"/>
<path d="M237.746 65.6479C238.692 65.6479 239.459 64.2104 239.459 62.4371C239.459 60.6638 238.692 59.2263 237.746 59.2263C236.8 59.2263 236.033 60.6638 236.033 62.4371C236.033 64.2104 236.8 65.6479 237.746 65.6479Z" fill="#72351C"/>
<g opacity="0.5">
<path opacity="0.5" d="M399.319 105.031C422.75 105.031 441.745 86.0491 441.745 62.6336C441.745 39.2181 422.75 20.2361 399.319 20.2361C375.888 20.2361 356.894 39.2181 356.894 62.6336C356.894 86.0491 375.888 105.031 399.319 105.031Z" fill="url(#paint1_linear)"/>
</g>
<path d="M399.404 103.863C422.338 103.863 440.93 85.2836 440.93 62.3641C440.93 39.4447 422.338 20.8647 399.404 20.8647C376.469 20.8647 357.877 39.4447 357.877 62.3641C357.877 85.2836 376.469 103.863 399.404 103.863Z" fill="#FEBD22"/>
<path d="M399.437 104.026C407.552 104.04 415.491 101.666 422.265 97.2005C420.737 88.8422 414.912 88.3651 414.912 88.3651H382.783C382.783 88.3651 377.289 88.8142 375.571 96.5044C382.557 101.416 390.895 104.044 399.437 104.026Z" fill="white"/>
<path d="M398.999 81.5224C410.071 81.5224 419.046 72.5529 419.046 61.4885C419.046 50.424 410.071 41.4545 398.999 41.4545C387.927 41.4545 378.952 50.424 378.952 61.4885C378.952 72.5529 387.927 81.5224 398.999 81.5224Z" fill="#72351C"/>
<path opacity="0.1" d="M392.534 78.1713H405.38V88.7973C405.381 89.5939 405.225 90.3828 404.92 91.119C404.615 91.8552 404.169 92.5242 403.605 93.0877C403.042 93.6512 402.373 94.0983 401.637 94.4033C400.9 94.7083 400.111 94.8653 399.314 94.8653H398.595C396.986 94.8653 395.443 94.2266 394.305 93.0897C393.168 91.9528 392.528 90.4108 392.528 88.8029V78.1713H392.534Z" fill="black"/>
<path d="M393.691 77.6942H404.223C404.53 77.6942 404.824 77.816 405.041 78.0328C405.258 78.2497 405.38 78.5438 405.38 78.8505V88.3202C405.38 89.1163 405.223 89.9046 404.918 90.6402C404.613 91.3757 404.167 92.044 403.603 92.607C403.04 93.1699 402.371 93.6165 401.635 93.9211C400.899 94.2258 400.11 94.3826 399.314 94.3826H398.595C397.798 94.3826 397.009 94.2258 396.273 93.9211C395.537 93.6165 394.869 93.1699 394.305 92.607C393.742 92.044 393.295 91.3757 392.99 90.6402C392.685 89.9046 392.528 89.1163 392.528 88.3202V78.8505C392.528 78.5438 392.65 78.2497 392.867 78.0328C393.084 77.816 393.379 77.6942 393.685 77.6942H393.691Z" fill="#ED7843"/>
<path opacity="0.1" d="M392.556 83.0212C396.697 84.5668 401.254 84.5787 405.403 83.0549V81.4775H392.556V83.0212Z" fill="black"/>
<path d="M398.999 83.8744C409.165 83.8744 417.406 75.6388 417.406 65.4795C417.406 55.3203 409.165 47.0847 398.999 47.0847C388.833 47.0847 380.592 55.3203 380.592 65.4795C380.592 75.6388 388.833 83.8744 398.999 83.8744Z" fill="#ED7843"/>
<path opacity="0.1" d="M385.889 48.7462C385.889 48.7462 393.646 64.4635 415.536 55.3418L410.441 47.3597L401.409 44.1208L385.889 48.7462Z" fill="black"/>
<path d="M385.889 48.516C385.889 48.516 393.646 64.2333 415.536 55.1117L410.441 47.152L401.409 43.9131L385.889 48.516Z" fill="#72351C"/>
<path d="M385.822 47.4495C386.344 45.8318 387.248 44.363 388.456 43.1665C392.079 39.5908 398.005 38.833 401.061 34.7465C401.228 35.0353 401.333 35.356 401.369 35.6879C401.404 36.0199 401.369 36.3555 401.267 36.6732C401.164 36.9908 400.995 37.2833 400.772 37.5316C400.549 37.7799 400.276 37.9785 399.971 38.1145C402.886 38.1145 406.268 37.8395 407.919 35.4426C408.327 36.3912 408.457 37.4361 408.294 38.4557C408.131 39.4753 407.681 40.4277 406.998 41.2019C409.582 41.3197 412.345 43.0711 412.508 45.6532C412.62 47.3709 411.542 49.0212 410.126 49.9867C408.657 50.8972 407.024 51.5112 405.318 51.7942C400.398 52.8776 382.614 57.4188 385.822 47.4495Z" fill="#72351C"/>
<path d="M417.412 65.6423H416.923L407.43 74.0623C398.28 69.7794 391.568 74.0623 391.568 74.0623L381.603 65.9904L380.598 66.1139C380.717 70.9532 382.741 75.5504 386.23 78.9086C389.719 82.2667 394.392 84.1152 399.235 84.0532C404.079 83.9911 408.703 82.0236 412.104 78.5771C415.506 75.1307 417.411 70.4831 417.406 65.6423H417.412ZM398.977 77.3293C395.393 77.3293 392.495 76.6052 392.495 75.707C392.495 74.8089 395.399 74.0848 398.977 74.0848C402.555 74.0848 405.459 74.8089 405.459 75.707C405.459 76.6052 402.555 77.3293 398.977 77.3293Z" fill="#72351C"/>
<path d="M380.587 68.6735C381.533 68.6735 382.3 67.236 382.3 65.4627C382.3 63.6894 381.533 62.2519 380.587 62.2519C379.64 62.2519 378.873 63.6894 378.873 65.4627C378.873 67.236 379.64 68.6735 380.587 68.6735Z" fill="#ED7843"/>
<path d="M417.406 68.6735C418.352 68.6735 419.119 67.236 419.119 65.4627C419.119 63.6894 418.352 62.2519 417.406 62.2519C416.46 62.2519 415.693 63.6894 415.693 65.4627C415.693 67.236 416.46 68.6735 417.406 68.6735Z" fill="#ED7843"/>
<g opacity="0.5">
<path opacity="0.5" d="M309.498 174.586C332.929 174.586 351.923 155.604 351.923 132.188C351.923 108.773 332.929 89.7909 309.498 89.7909C286.067 89.7909 267.072 108.773 267.072 132.188C267.072 155.604 286.067 174.586 309.498 174.586Z" fill="url(#paint2_linear)"/>
</g>
<path d="M309.498 173.458C332.432 173.458 351.024 154.878 351.024 131.958C351.024 109.039 332.432 90.4589 309.498 90.4589C286.563 90.4589 267.971 109.039 267.971 131.958C267.971 154.878 286.563 173.458 309.498 173.458Z" fill="#FF1744"/>
<path d="M293.287 132.323C293.287 132.323 288.58 155.506 285.985 154.215C285.985 154.215 310.767 175.608 332.651 154.215C332.651 154.215 328.798 137.88 323.231 132.323H293.287Z" fill="#333333"/>
<path d="M309.61 173.581C317.725 173.594 325.664 171.22 332.438 166.755C330.91 158.397 325.085 157.92 325.085 157.92H292.978C292.978 157.92 287.485 158.369 285.766 166.059C292.746 170.966 301.075 173.594 309.61 173.581Z" fill="white"/>
<path d="M309.177 149.438C319.343 149.438 327.584 141.202 327.584 131.043C327.584 120.884 319.343 112.648 309.177 112.648C299.012 112.648 290.77 120.884 290.77 131.043C290.77 141.202 299.012 149.438 309.177 149.438Z" fill="#333333"/>
<path opacity="0.1" d="M302.707 147.726H315.553V158.352C315.553 159.958 314.915 161.498 313.78 162.635C312.645 163.772 311.105 164.412 309.498 164.415H308.767C307.159 164.415 305.616 163.776 304.478 162.639C303.34 161.502 302.701 159.96 302.701 158.352V147.726H302.707Z" fill="black"/>
<path d="M303.881 147.249H314.413C314.719 147.249 315.014 147.371 315.231 147.588C315.448 147.805 315.57 148.099 315.57 148.405V157.875C315.562 159.479 314.919 161.015 313.781 162.146C312.643 163.277 311.103 163.911 309.498 163.909H308.767C307.159 163.909 305.616 163.271 304.478 162.134C303.34 160.997 302.701 159.455 302.701 157.847V148.405C302.701 148.099 302.823 147.805 303.04 147.588C303.257 147.371 303.551 147.249 303.858 147.249H303.881Z" fill="#A36041"/>
<path opacity="0.1" d="M302.729 152.57C306.869 154.116 311.427 154.128 315.575 152.604V151.027H302.729V152.57Z" fill="black"/>
<path d="M309.177 153.429C319.343 153.429 327.584 145.194 327.584 135.034C327.584 124.875 319.343 116.639 309.177 116.639C299.012 116.639 290.77 124.875 290.77 135.034C290.77 145.194 299.012 153.429 309.177 153.429Z" fill="#A36041"/>
<path d="M291.574 128.046H326.68C326.68 128.046 323.681 113.878 310.391 114.781C297.101 115.685 291.574 128.046 291.574 128.046Z" fill="#333333"/>
<path d="M291.147 137.459C292.093 137.459 292.86 136.022 292.86 134.248C292.86 132.475 292.093 131.038 291.147 131.038C290.201 131.038 289.434 132.475 289.434 134.248C289.434 136.022 290.201 137.459 291.147 137.459Z" fill="#A36041"/>
<path d="M327.107 137.459C328.053 137.459 328.82 136.022 328.82 134.248C328.82 132.475 328.053 131.038 327.107 131.038C326.161 131.038 325.394 132.475 325.394 134.248C325.394 136.022 326.161 137.459 327.107 137.459Z" fill="#A36041"/>
<path opacity="0.1" d="M291.574 128.545H326.68C326.68 128.545 323.681 114.377 310.391 115.281C297.101 116.185 291.574 128.545 291.574 128.545Z" fill="black"/>
<path fill-rule="evenodd" clip-rule="evenodd" d="M313.66 72.7375H302.358V84.5346C298.53 85.1074 294.788 86.1384 291.211 87.6033L285.171 77.5572L275.484 83.374L281.323 93.0857C277.539 95.809 274.185 99.0549 271.356 102.711L261.099 97.0294L255.619 106.907L265.535 112.4C265.334 112.846 265.139 113.296 264.951 113.749C263.131 118.141 261.981 122.754 261.517 127.434H248.817V137.538H261.579C261.731 138.893 261.94 140.244 262.208 141.589C262.87 144.917 263.879 148.149 265.208 151.235L255.266 157.443L261.255 167.021L270.865 161.02C272.244 162.866 273.76 164.618 275.403 166.26C277.765 168.62 280.354 170.717 283.122 172.525L278.006 180.98L287.726 186.853L293.333 177.585C295.529 178.366 297.787 178.989 300.091 179.447C300.845 179.597 301.601 179.729 302.358 179.842V191.634H313.66V180.193C318.486 179.775 323.248 178.631 327.778 176.776L333.816 186.818L343.503 181.002L337.667 171.295C341.646 168.432 345.179 164.97 348.132 161.017L357.743 167.019L363.732 157.441L353.789 151.232C355.665 146.875 356.889 142.258 357.417 137.532H370.173V127.428H357.473C356.949 122.208 355.579 117.137 353.442 112.404L363.369 106.905L357.89 97.0272L347.616 102.718C346.374 101.114 345.026 99.5823 343.575 98.133C341.729 96.2877 339.748 94.6073 337.656 93.1013L343.503 83.3774L333.815 77.5606L327.77 87.6159C323.292 85.7793 318.537 84.6153 313.66 84.1879V72.7375ZM309.498 93.5462C317.145 93.5462 324.621 95.8125 330.98 100.059C337.339 104.305 342.295 110.34 345.222 117.401C348.148 124.462 348.914 132.231 347.422 139.727C345.93 147.223 342.247 154.108 336.84 159.513C331.432 164.917 324.542 168.597 317.041 170.088C309.541 171.579 301.766 170.814 294.7 167.889C287.635 164.964 281.596 160.012 277.347 153.657C273.098 147.302 270.83 139.831 270.83 132.188C270.83 121.94 274.904 112.111 282.156 104.864C289.407 97.6174 299.242 93.5462 309.498 93.5462Z" fill="#CCCCCC"/>
<path fill-rule="evenodd" clip-rule="evenodd" d="M403.482 3.18274H392.18V14.9798C388.354 15.5523 384.614 16.5824 381.039 18.0459L374.998 7.9987L365.311 13.8156L371.15 23.527C367.365 26.25 364.011 29.4958 361.181 33.1522L350.93 27.4735L345.451 37.3514L355.359 42.8401C355.157 43.2879 354.962 43.7393 354.773 44.194C352.953 48.5865 351.803 53.1989 351.338 57.8791H338.644V67.9831H351.401C351.552 69.338 351.762 70.6895 352.029 72.034C352.692 75.3619 353.7 78.5933 355.029 81.6792L345.087 87.8876L351.076 97.4655L360.686 91.4643C362.066 93.3106 363.582 95.0629 365.225 96.7054C367.564 99.0423 370.124 101.121 372.862 102.916L368.078 110.822L377.798 116.695L383.061 107.996C385.286 108.793 387.576 109.428 389.913 109.893C390.667 110.042 391.423 110.174 392.18 110.287V122.079H403.482V110.639C408.309 110.221 413.072 109.076 417.603 107.22L423.643 117.266L433.33 111.449L427.492 101.738C431.468 98.8765 435 95.4159 437.952 91.4655L447.564 97.4677L453.553 87.8898L443.609 81.6805C445.485 77.3241 446.71 72.7086 447.238 67.9831H460V57.8791H447.295C446.772 52.6589 445.403 47.5867 443.266 42.8537L453.197 37.3526L447.718 27.4746L437.441 33.1674C436.198 31.5622 434.849 30.0287 433.397 28.5782C431.551 26.7328 429.57 25.0523 427.478 23.5463L433.326 13.8189L423.639 8.00204L417.591 18.0609C413.113 16.2244 408.359 15.0605 403.482 14.6331V3.18274ZM399.319 23.9914C406.967 23.9914 414.443 26.2577 420.802 30.5038C427.161 34.7498 432.117 40.7849 435.044 47.8459C437.97 54.9068 438.736 62.6764 437.244 70.1723C435.752 77.6681 432.069 84.5535 426.661 89.9577C421.254 95.3619 414.364 99.0422 406.863 100.533C399.362 102.024 391.588 101.259 384.522 98.3343C377.456 95.4096 371.417 90.4567 367.169 84.102C362.92 77.7473 360.652 70.2763 360.652 62.6336C360.652 52.385 364.726 42.5562 371.977 35.3094C379.229 28.0626 389.064 23.9914 399.319 23.9914Z" fill="#CCCCCC"/>
<path fill-rule="evenodd" clip-rule="evenodd" d="M214.61 0.00115967L214.201 11.7819C210.336 12.2209 206.556 13.1239 202.94 14.4587L197.265 4.2316L187.382 9.70877L192.865 19.5905C190.369 21.2569 188.017 23.1641 185.846 25.2969C184.685 26.4371 183.588 27.63 182.557 28.8702L172.527 22.8496L166.708 32.5315L176.402 38.3501C174.1 43.0164 172.558 48.0459 171.86 53.2471L159.186 52.807L158.835 62.9049L171.572 63.3472C171.965 68.4627 173.171 73.455 175.12 78.1435L165.682 83.5642L171.333 93.39L180.672 88.026C181.899 89.7096 183.241 91.3206 184.692 92.8469C186.395 94.6386 188.223 96.2855 190.156 97.7789L183.991 107.268L193.471 113.418L199.852 103.595C203.368 105.177 207.073 106.338 210.892 107.042L210.482 118.829L221.776 119.222L222.174 107.772C227.061 107.506 231.843 106.5 236.366 104.817L242.081 115.115L251.964 109.638L246.428 99.6607C248.906 97.9975 251.241 96.0967 253.397 93.973C254.752 92.6383 256.019 91.2316 257.196 89.7617L266.685 96.1554L273.003 86.7911L263.177 80.1701C265.185 75.9043 266.564 71.3493 267.254 66.6476L280.125 67.0945L280.476 56.9966L267.663 56.5517C267.327 51.3407 266.146 46.2499 264.196 41.4692L274.393 36.2751L269.26 26.213L258.729 31.5773C257.462 29.811 256.069 28.123 254.557 26.5272C252.87 24.7473 251.061 23.1096 249.148 21.6227L255.359 12.0611L245.88 5.91158L239.47 15.7794C235.065 13.7821 230.36 12.4471 225.507 11.8431L225.905 0.393345L214.61 0.00115967ZM219.648 21.0163H221.013C231.148 21.3617 240.742 25.6725 247.727 33.0197C254.713 40.3669 258.53 50.1625 258.357 60.2957C258.184 70.4288 254.034 80.0884 246.802 87.1931C239.57 94.2977 229.834 98.2787 219.693 98.2782H218.328C208.192 97.9327 198.599 93.622 191.613 86.2747C184.628 78.9275 180.811 69.132 180.984 58.9988C181.157 48.8656 185.307 39.206 192.539 32.1013C199.771 24.9967 209.507 21.0157 219.648 21.0163Z" fill="#CCCCCC"/>
<g opacity="0.5">
<path opacity="0.5" d="M37.4767 246.465C58.1746 246.465 74.9535 229.697 74.9535 209.012C74.9535 188.328 58.1746 171.56 37.4767 171.56C16.7789 171.56 0 188.328 0 209.012C0 229.697 16.7789 246.465 37.4767 246.465Z" fill="url(#paint3_linear)"/>
</g>
<path d="M37.5498 245.437C57.8102 245.437 74.2345 229.024 74.2345 208.777C74.2345 188.53 57.8102 172.116 37.5498 172.116C17.2894 172.116 0.865051 188.53 0.865051 208.777C0.865051 229.024 17.2894 245.437 37.5498 245.437Z" fill="#E6E6E6"/>
<path d="M37.5779 245.583C44.746 245.596 51.7592 243.499 57.7429 239.555C56.3892 232.173 51.2441 231.752 51.2441 231.752H22.8781C22.8781 231.752 18.025 232.151 16.5084 238.943C22.6768 243.278 30.037 245.597 37.5779 245.583Z" fill="#CCCCCC"/>
<path d="M37.1959 225.701C46.9771 225.701 54.9063 217.777 54.9063 208.002C54.9063 198.227 46.9771 190.303 37.1959 190.303C27.4147 190.303 19.4854 198.227 19.4854 208.002C19.4854 217.777 27.4147 225.701 37.1959 225.701Z" fill="#CCCCCC"/>
<path opacity="0.1" d="M31.4553 222.743H42.8016V232.128C42.8016 233.548 42.2371 234.911 41.2321 235.915C40.2272 236.919 38.8642 237.483 37.443 237.483H36.8364C36.1308 237.486 35.4315 237.35 34.7788 237.082C34.1261 236.814 33.5327 236.42 33.0327 235.923C32.5327 235.425 32.136 234.834 31.8653 234.183C31.5946 233.532 31.4553 232.833 31.4553 232.128V222.743Z" fill="black"/>
<path d="M31.8204 222.322H42.4927C42.5821 222.322 42.6678 222.357 42.731 222.42C42.7942 222.483 42.8297 222.569 42.8297 222.658V231.707C42.8297 233.127 42.2652 234.49 41.2602 235.494C40.2553 236.498 38.8923 237.062 37.4711 237.062H36.8364C36.1308 237.065 35.4315 236.929 34.7788 236.661C34.1261 236.393 33.5327 235.999 33.0327 235.502C32.5327 235.004 32.136 234.413 31.8653 233.762C31.5946 233.111 31.4553 232.412 31.4553 231.707V222.658C31.4553 222.569 31.4908 222.483 31.554 222.42C31.6172 222.357 31.7029 222.322 31.7923 222.322H31.8204Z" fill="#CCCCCC"/>
<path opacity="0.1" d="M31.5002 227.02C35.1567 228.386 39.1821 228.398 42.8466 227.054V225.656H31.5002V227.02Z" fill="black"/>
<path d="M37.1959 227.778C46.1767 227.778 53.4572 220.502 53.4572 211.527C53.4572 202.552 46.1767 195.277 37.1959 195.277C28.215 195.277 20.9346 202.552 20.9346 211.527C20.9346 220.502 28.215 227.778 37.1959 227.778Z" fill="#CCCCCC"/>
<path opacity="0.1" d="M25.6136 196.747C25.6136 196.747 32.4663 210.652 51.8001 202.574L47.3065 195.518L39.3247 192.655L25.6136 196.747Z" fill="black"/>
<path d="M25.6136 196.54C25.6136 196.54 32.4663 210.444 51.8001 202.366L47.3065 195.31L39.3247 192.448L25.6136 196.54Z" fill="#CCCCCC"/>
<path d="M25.5406 195.602C26.0036 194.173 26.803 192.875 27.8717 191.819C31.0734 188.659 36.2972 187.991 39.0046 184.387C39.1512 184.642 39.2426 184.925 39.273 185.218C39.3034 185.51 39.2721 185.806 39.1811 186.086C39.09 186.366 38.9413 186.623 38.7445 186.842C38.5477 187.061 38.3072 187.236 38.0385 187.356C40.6111 187.356 43.6049 187.115 45.0597 184.993C45.4196 185.831 45.5341 186.754 45.3899 187.654C45.2457 188.554 44.8488 189.395 44.2453 190.079C46.5314 190.18 48.9692 191.729 49.1152 194.008C49.2163 195.529 48.2614 196.966 47.0088 197.836C45.7115 198.642 44.2688 199.185 42.7624 199.436C38.4317 200.396 22.7321 204.404 25.5406 195.602Z" fill="#CCCCCC"/>
<path d="M20.9234 214.351C21.7579 214.351 22.4344 213.082 22.4344 211.516C22.4344 209.95 21.7579 208.681 20.9234 208.681C20.0889 208.681 19.4124 209.95 19.4124 211.516C19.4124 213.082 20.0889 214.351 20.9234 214.351Z" fill="#CCCCCC"/>
<path d="M53.4571 214.351C54.2916 214.351 54.9681 213.082 54.9681 211.516C54.9681 209.95 54.2916 208.681 53.4571 208.681C52.6227 208.681 51.9462 209.95 51.9462 211.516C51.9462 213.082 52.6227 214.351 53.4571 214.351Z" fill="#CCCCCC"/>
<g opacity="0.5">
<path opacity="0.5" d="M43.4252 242.9C64.123 242.9 80.9019 226.132 80.9019 205.448C80.9019 184.764 64.123 167.996 43.4252 167.996C22.7273 167.996 5.94843 184.764 5.94843 205.448C5.94843 226.132 22.7273 242.9 43.4252 242.9Z" fill="url(#paint4_linear)"/>
</g>
<path d="M43.4982 241.867C63.7586 241.867 80.1829 225.454 80.1829 205.207C80.1829 184.96 63.7586 168.546 43.4982 168.546C23.2377 168.546 6.81342 184.96 6.81342 205.207C6.81342 225.454 23.2377 241.867 43.4982 241.867Z" fill="#F5F5F5"/>
<path d="M43.515 242.013C50.6832 242.026 57.6964 239.929 63.6801 235.985C62.3264 228.603 57.1812 228.182 57.1812 228.182H28.8153C28.8153 228.182 23.9622 228.581 22.4456 235.373C28.614 239.708 35.9742 242.027 43.515 242.013Z" fill="#CCCCCC"/>
<path d="M43.1443 222.131C52.9255 222.131 60.8548 214.207 60.8548 204.432C60.8548 194.657 52.9255 186.733 43.1443 186.733C33.3631 186.733 25.4338 194.657 25.4338 204.432C25.4338 214.207 33.3631 222.131 43.1443 222.131Z" fill="#CCCCCC"/>
<path opacity="0.1" d="M37.4261 219.173H48.7725V228.558C48.7725 229.978 48.208 231.34 47.203 232.345C46.1981 233.349 44.8351 233.913 43.4139 233.913H42.7848C41.3636 233.913 40.0006 233.349 38.9957 232.345C37.9907 231.34 37.4261 229.978 37.4261 228.558V219.173Z" fill="black"/>
<path d="M37.7688 218.752H48.4412C48.5305 218.752 48.6163 218.787 48.6795 218.85C48.7427 218.913 48.7782 218.999 48.7782 219.088V228.137C48.7811 228.842 48.6447 229.541 48.3767 230.193C48.1088 230.846 47.7145 231.439 47.2166 231.938C46.7188 232.438 46.127 232.834 45.4754 233.105C44.8238 233.375 44.1252 233.515 43.4196 233.515H42.7848C41.3636 233.515 40.0006 232.95 38.9957 231.946C37.9908 230.942 37.4262 229.58 37.4262 228.16V219.094C37.4254 219.049 37.4338 219.004 37.4507 218.962C37.4677 218.92 37.4929 218.882 37.5249 218.85C37.5568 218.818 37.5949 218.793 37.6368 218.776C37.6787 218.759 37.7236 218.751 37.7688 218.752Z" fill="#CCCCCC"/>
<path opacity="0.1" d="M37.4487 223.456C41.1052 224.822 45.1305 224.834 48.795 223.489V222.097H37.4487V223.456Z" fill="black"/>
<path d="M43.1443 224.213C52.1252 224.213 59.4056 216.938 59.4056 207.963C59.4056 198.988 52.1252 191.712 43.1443 191.712C34.1635 191.712 26.8831 198.988 26.8831 207.963C26.8831 216.938 34.1635 224.213 43.1443 224.213Z" fill="#CCCCCC"/>
<path opacity="0.1" d="M31.562 193.177C31.562 193.177 38.4148 207.081 57.7485 199.004L53.2549 191.948L45.2732 189.085L31.562 193.177Z" fill="black"/>
<path d="M31.562 192.975C31.562 192.975 38.4148 206.879 57.7485 198.802L53.2549 191.746L45.2732 188.883L31.562 192.975Z" fill="#CCCCCC"/>
<path d="M31.5002 192.038C31.9632 190.608 32.7626 189.311 33.8313 188.254C37.033 185.094 42.2568 184.426 44.9642 180.822C45.1108 181.077 45.2022 181.36 45.2326 181.653C45.263 181.946 45.2317 182.241 45.1407 182.521C45.0496 182.801 44.9009 183.059 44.7041 183.278C44.5073 183.496 44.2668 183.672 43.9981 183.792C46.5707 183.792 49.5645 183.55 51.0193 181.428C51.3792 182.266 51.4937 183.189 51.3495 184.089C51.2053 184.99 50.8084 185.83 50.2049 186.514C52.491 186.615 54.9288 188.164 55.0748 190.444C55.1759 191.965 54.221 193.402 52.9684 194.272C51.6711 195.077 50.2284 195.621 48.722 195.872C44.38 196.831 28.6636 200.839 31.5002 192.038Z" fill="#CCCCCC"/>
<path d="M26.8718 210.781C27.7063 210.781 28.3828 209.512 28.3828 207.946C28.3828 206.38 27.7063 205.111 26.8718 205.111C26.0373 205.111 25.3608 206.38 25.3608 207.946C25.3608 209.512 26.0373 210.781 26.8718 210.781Z" fill="#CCCCCC"/>
<path d="M59.4056 210.781C60.2401 210.781 60.9165 209.512 60.9165 207.946C60.9165 206.38 60.2401 205.111 59.4056 205.111C58.5711 205.111 57.8946 206.38 57.8946 207.946C57.8946 209.512 58.5711 210.781 59.4056 210.781Z" fill="#CCCCCC"/>
<path d="M182.817 77.5426V79.3388L177.762 78.8898V90.1164L164.534 109.488L163.719 109.011L161.922 111.256L179.014 122.045V117.998L178.054 117.437C179.25 112.974 184.148 95.1797 186.946 92.8277C186.946 92.8277 192.001 89.2295 194.731 84.2842C197.461 79.3388 196.09 62.2575 182.817 77.5426Z" fill="url(#paint5_linear)"/>
<path d="M156.052 119.946C156.052 119.946 137.729 116.078 127.675 112.003C122.983 110.089 117.989 109.019 112.925 108.843L101.932 108.483L96.4554 105.199L98.1405 100.782C98.309 100.709 98.4775 100.63 98.646 100.535L98.8033 99.5862C99.6814 99.3694 100.548 99.1071 101.398 98.8003C101.273 99.8703 101.405 100.955 101.782 101.964C102.159 102.973 102.77 103.878 103.567 104.604C104.197 105.305 104.969 105.865 105.832 106.246C106.694 106.627 107.628 106.822 108.571 106.816C109.506 106.819 110.431 106.628 111.287 106.255C112.144 105.882 112.914 105.335 113.548 104.649C114.181 103.963 114.666 103.152 114.969 102.269C115.273 101.386 115.39 100.449 115.312 99.5188L114.525 89.6057L114.127 89.8133L114.076 89.151L113.93 89.2296C116.972 84.9203 118.642 79.794 118.721 74.521C118.8 69.248 117.285 64.0738 114.374 59.6754L114.801 59.2824V48.3645C114.655 48.2242 114.503 48.095 114.351 47.9659V47.9154C105.285 39.4954 92.8268 40.1578 83.8171 42.3021C80.4776 43.0923 77.4664 44.9002 75.2002 47.4757C72.934 50.0512 70.8339 49.089 70.4767 52.5C66.3091 61.3222 64 78 64 78C64 78 65.3434 85.4584 69.5 89.5C71.2277 91.278 73.7633 94.8402 75.987 95.9375L73.3526 101.197L72.5831 101.169L70.4767 107.445H70.3756L44.2846 125.104L26.2596 144.976C25.4768 145.839 24.971 146.917 24.8076 148.071C24.6441 149.225 24.8306 150.401 25.3428 151.447C25.855 152.494 26.6694 153.363 27.6809 153.943C28.6924 154.522 29.8545 154.785 31.0172 154.698L49.4578 153.306C49.4578 153.306 62.5005 178.813 58.4451 204.32C57.0857 212.891 57.6531 218.134 59.0068 221.328C58.6307 224.782 57.6816 228.15 56.1982 231.292C51.2497 241.632 51.2497 252.42 57.5463 265.005L59.3438 330.188C59.3438 330.188 61.5906 360.758 59.3438 367.05C57.097 373.343 60.2425 403.464 60.2425 403.464H59.8044V420.102L93.5065 421C93.5065 421 101.37 417.273 102.78 414.455L119.721 419.658C119.721 419.658 138.358 416.448 127.456 412.013C119.317 408.701 117.295 403.98 116.783 401.791L143.425 325.242C143.425 325.242 138.476 260.06 120.485 237.579L118.659 224.326H118.912L122.737 146.929L123.052 146.974L122.962 147.002C135.673 148.922 145.885 147.906 152.654 146.542C155.591 146.018 158.471 145.212 161.253 144.134L161.759 143.931H161.821H161.866C163.953 143.078 165.92 141.957 167.719 140.597L178.953 123.426L161.86 111.638L156.052 119.946ZM85.4292 383.211L93.9783 323.423V292.876L109.273 324.793L92.8156 393.961L91.9506 393.719L88.1535 407.343C86.913 406.318 85.972 404.978 85.4292 403.464V383.211Z" fill="url(#paint6_linear)"/>
<path d="M47.7727 129.668C47.7727 129.668 22.3894 135.635 26.8718 172.189C26.8718 172.189 36.0556 168.944 39.2629 168.574C42.3074 168.22 51.508 169.208 51.508 169.208L55.8725 152.683L47.7727 129.668Z" fill="white"/>
<path d="M174.953 85.7605V96.4932L162.163 115.219L174.953 123.533C174.953 123.533 180.638 101.641 183.699 99.0641C183.699 99.0641 188.513 95.6287 191.136 90.9079C193.759 86.1871 192.45 69.8747 179.761 84.4694V86.1871L174.953 85.7605Z" fill="#682C13"/>
<path d="M73.1335 111.352L78.1889 101.248C78.3377 100.951 78.5628 100.699 78.8411 100.517C79.1194 100.336 79.4409 100.231 79.7728 100.215L99.0055 99.2325C99.3182 99.2161 99.6299 99.2782 99.9124 99.4131C100.195 99.5479 100.439 99.7513 100.623 100.005C100.807 100.258 100.924 100.553 100.964 100.863C101.004 101.174 100.966 101.489 100.854 101.781L95.8937 114.596C95.7467 114.975 95.4804 115.296 95.1349 115.511C94.7894 115.726 94.3835 115.822 93.9783 115.786L74.6445 114.069C74.3386 114.042 74.0438 113.941 73.7861 113.774C73.5284 113.607 73.3156 113.38 73.1664 113.111C73.0172 112.843 72.9362 112.542 72.9305 112.236C72.9248 111.929 72.9945 111.625 73.1335 111.352Z" fill="#682C13"/>
<path d="M74.5603 107.007L71.2968 116.583L104.842 115.382L91.9562 107.652L74.5603 107.007Z" fill="#EDEEF9"/>
<path d="M159.821 116.667L161.54 114.523L176.138 123.106V126.968L159.821 116.667Z" fill="#EDEEF9"/>
<path d="M61.1469 211.623C61.1469 211.623 63.6015 221.395 58.9001 231.269C54.1986 241.143 54.1761 251.444 60.1864 263.462L61.9052 325.702C61.9052 325.702 64.0509 354.892 61.9052 360.898C59.7595 366.904 62.7646 395.667 62.7646 395.667H86.8166V376.357L94.9782 319.27V290.08L109.582 320.555L92.8156 390.952L114.722 399.967L142.212 320.987C142.212 320.987 137.488 258.747 120.305 237.287L117.098 213.868L61.1469 211.623Z" fill="#535461"/>
<path d="M62.3208 411.558V395.673H86.8054C86.8054 395.673 88.5242 402.111 99.6908 403.397C110.857 404.682 94.5344 412.412 94.5344 412.412L62.3208 411.558Z" fill="#333333"/>
<path d="M88.7601 401.668L93.0234 386.366L116.615 392.928C116.615 392.928 116.542 399.591 126.956 403.823C137.37 408.056 119.569 411.121 119.569 411.121L88.7601 401.668Z" fill="#333333"/>
<path opacity="0.1" d="M117.098 215.176L61.1637 212.931C61.8548 216.263 61.9971 219.685 61.585 223.063C64.1463 229.08 69.6342 227.43 69.6342 227.43L118.575 225.925L117.098 215.176Z" fill="black"/>
<path d="M72.4146 113.019L47.5031 129.859L52.4405 156.803C52.4405 156.803 64.899 181.159 61.0289 205.515C57.1588 229.872 69.6173 226.122 69.6173 226.122L118.783 224.623L122.434 150.724C122.434 150.724 152.086 154.928 165.404 144.633L176.144 128.242L159.821 117.016L154.238 124.975C154.238 124.975 136.758 121.248 127.141 117.375C122.662 115.548 117.894 114.528 113.059 114.36L72.4146 113.019Z" fill="white"/>
<path opacity="0.1" d="M72.8415 231.92C72.8415 231.92 69.8364 246.942 87.0132 271.843L72.8415 231.92Z" fill="black"/>
<path opacity="0.1" d="M122.664 150.791C122.664 150.791 143.279 143.926 152.3 143.926C161.321 143.926 159.815 147.821 159.815 147.821C159.815 147.821 145.43 154.226 122.664 150.791Z" fill="black"/>
<path opacity="0.1" d="M99.2864 100.08L91.0855 101.04C90.8271 101.074 90.5912 101.399 90.4508 101.904C92.2539 105.155 94.5119 107.097 96.9609 107.097C97.8362 107.086 98.6936 106.848 99.4493 106.406L100.078 102.612C100.286 101.36 99.8705 100.007 99.2864 100.08Z" fill="black"/>
<path d="M93.5626 106.255C107.398 106.255 118.615 95.046 118.615 81.2193C118.615 67.3926 107.398 56.1838 93.5626 56.1838C79.7269 56.1838 68.5107 67.3926 68.5107 81.2193C68.5107 95.046 79.7269 106.255 93.5626 106.255Z" fill="#682C13"/>
<path opacity="0.1" d="M114.851 56.6105V67.0401L113.587 68.1964C113.05 68.6877 112.645 69.3064 112.411 69.9954C112.176 70.6844 112.119 71.4214 112.245 72.1382C112.371 72.8551 112.676 73.5286 113.132 74.0964C113.587 74.6643 114.178 75.1082 114.851 75.3871C114.851 75.3871 112.762 92.0755 110.155 98.3344L114.593 95.988L115.345 105.452C115.416 106.34 115.302 107.233 115.01 108.074C114.719 108.916 114.256 109.688 113.652 110.342C113.047 110.997 112.314 111.519 111.497 111.876C110.681 112.233 109.8 112.418 108.908 112.418C107.802 112.418 106.714 112.134 105.748 111.593C104.783 111.051 103.973 110.271 103.397 109.328C102.82 108.384 102.495 107.308 102.454 106.202C102.413 105.097 102.657 104 103.162 103.016C104.224 100.95 106.105 98.7779 107.027 95.7186C110.397 84.4919 103.656 86.5913 102.067 88.6795C100.477 90.7676 102.325 96.2406 102.325 96.2406C102.325 96.2406 107.285 105.368 81.1883 103.28C81.1883 103.28 69.5 98.3344 66.5 82C66.6854 79.6761 71.5 69.9954 73.6222 64.9463C73.9628 61.6897 75.308 58.6194 77.4717 56.1605C79.6353 53.7016 82.5104 51.9757 85.6988 51.2217C94.3153 49.2065 106.212 48.561 114.851 56.6105Z" fill="black"/>
<path d="M114.441 66.6134V56.1839C105.785 48.1287 93.8884 48.7743 85.2775 50.7951C82.0891 51.5491 79.214 53.275 77.0504 55.7339L66.5 82C72.5 102.589 80.7671 102.853 80.7671 102.853C106.864 104.941 101.904 95.814 101.904 95.814C101.904 95.814 100.056 90.341 101.646 88.2528C103.235 86.1647 109.976 84.0653 106.605 95.292C105.684 98.3512 103.802 100.524 102.741 102.589C102.236 103.573 101.992 104.671 102.033 105.776C102.074 106.881 102.398 107.957 102.975 108.901C103.552 109.845 104.362 110.625 105.327 111.166C106.292 111.707 107.38 111.991 108.487 111.992C109.378 111.991 110.26 111.807 111.076 111.449C111.892 111.092 112.626 110.57 113.23 109.916C113.835 109.261 114.298 108.489 114.589 107.648C114.881 106.806 114.995 105.913 114.924 105.025L114.171 95.5614L109.734 97.9078C112.34 91.6489 114.43 74.9605 114.43 74.9605C113.757 74.6816 113.166 74.2377 112.71 73.6698C112.255 73.1019 111.95 72.4285 111.824 71.7116C111.698 70.9948 111.755 70.2578 111.989 69.5688C112.224 68.8798 112.629 68.2611 113.166 67.7698L114.441 66.6134Z" fill="#341A0F"/>
</g>
<defs>
<linearGradient id="paint0_linear" x1="219.659" y1="102.006" x2="219.659" y2="17.2161" gradientUnits="userSpaceOnUse">
<stop stop-color="#808080" stop-opacity="0.25"/>
<stop offset="0.54" stop-color="#808080" stop-opacity="0.12"/>
<stop offset="1" stop-color="#808080" stop-opacity="0.1"/>
</linearGradient>
<linearGradient id="paint1_linear" x1="60678.1" y1="15885.4" x2="60678.1" y2="3077.1" gradientUnits="userSpaceOnUse">
<stop stop-color="#808080" stop-opacity="0.25"/>
<stop offset="0.54" stop-color="#808080" stop-opacity="0.12"/>
<stop offset="1" stop-color="#808080" stop-opacity="0.1"/>
</linearGradient>
<linearGradient id="paint2_linear" x1="47019.8" y1="26461.9" x2="47019.8" y2="13653.6" gradientUnits="userSpaceOnUse">
<stop stop-color="#808080" stop-opacity="0.25"/>
<stop offset="0.54" stop-color="#808080" stop-opacity="0.12"/>
<stop offset="1" stop-color="#808080" stop-opacity="0.1"/>
</linearGradient>
<linearGradient id="paint3_linear" x1="5000.9" y1="33059.8" x2="5000.9" y2="23064.6" gradientUnits="userSpaceOnUse">
<stop stop-color="#808080" stop-opacity="0.25"/>
<stop offset="0.54" stop-color="#808080" stop-opacity="0.12"/>
<stop offset="1" stop-color="#808080" stop-opacity="0.1"/>
</linearGradient>
<linearGradient id="paint4_linear" x1="5800.6" y1="32580.6" x2="5800.6" y2="22585.4" gradientUnits="userSpaceOnUse">
<stop stop-color="#808080" stop-opacity="0.25"/>
<stop offset="0.54" stop-color="#808080" stop-opacity="0.12"/>
<stop offset="1" stop-color="#808080" stop-opacity="0.1"/>
</linearGradient>
<linearGradient id="paint5_linear" x1="17453.1" y1="14904.1" x2="17453.1" y2="10320.3" gradientUnits="userSpaceOnUse">
<stop stop-color="#808080" stop-opacity="0.25"/>
<stop offset="0.54" stop-color="#808080" stop-opacity="0.12"/>
<stop offset="1" stop-color="#808080" stop-opacity="0.1"/>
</linearGradient>
<linearGradient id="paint6_linear" x1="57366.5" y1="313611" x2="57366.5" y2="56244" gradientUnits="userSpaceOnUse">
<stop stop-color="#808080" stop-opacity="0.25"/>
<stop offset="0.54" stop-color="#808080" stop-opacity="0.12"/>
<stop offset="1" stop-color="#808080" stop-opacity="0.1"/>
</linearGradient>
<clipPath id="clip0">
<rect width="460" height="421" fill="white"/>
</clipPath>
</defs>
</svg>
