<svg width="546" height="624" viewBox="0 0 546 624" fill="none" xmlns="http://www.w3.org/2000/svg">
<path opacity="0.1" d="M475.796 87.509C424.971 85.7494 376.564 69.3316 330.341 51.3742C284.118 33.4168 238.334 13.4956 188.726 4.01415C156.819 -2.11305 120.325 -2.97714 94.6221 14.1397C69.8927 30.6046 61.8825 59.0568 57.5868 85.4037C54.3514 105.246 52.4509 126.134 61.3092 144.712C67.466 157.61 78.3819 168.451 85.9365 180.8C112.221 223.792 93.6404 276.8 65.1651 318.771C51.8148 338.457 36.3049 357.263 25.9938 378.197C15.6826 399.132 10.9158 423.169 19.939 444.552C28.8759 465.761 50.1813 481.661 73.2616 492.854C120.137 515.596 175.352 522.1 229.232 525.792C348.466 533.946 468.328 530.419 587.876 526.876C632.12 525.572 676.553 524.245 720.075 517.403C744.247 513.601 769.196 507.568 786.748 493.004C809.019 474.52 814.54 443.224 799.611 420.043C774.575 381.167 705.374 371.512 687.854 329.793C678.226 306.823 688.113 281.246 702.115 259.95C732.145 214.256 782.476 174.17 785.122 121.947C786.944 86.0793 762.749 50.1567 725.337 33.1812C686.126 15.3887 631.743 17.6275 602.828 47.0695C573.026 77.3991 520.661 89.0722 475.796 87.509Z" fill="#6C63FF"/>
<path d="M203.796 96.9983H0V300.853H203.796V96.9983Z" fill="#E8E9ED"/>
<path opacity="0.5" d="M114.176 25.1608L112.142 23.0791C112.102 23.0339 112.052 22.9978 111.997 22.9734C111.941 22.9491 111.881 22.9369 111.82 22.9377C111.76 22.9358 111.699 22.9475 111.643 22.972C111.588 22.9964 111.538 23.033 111.498 23.0791L97.4413 37.2188L92.3211 32.1049C92.28 32.0607 92.2301 32.0254 92.1747 32.0013C92.1193 31.9771 92.0596 31.9647 91.9991 31.9647C91.9387 31.9647 91.8789 31.9771 91.8236 32.0013C91.7682 32.0254 91.7183 32.0607 91.6772 32.1049L89.6275 34.1552C89.5828 34.1977 89.5473 34.2489 89.523 34.3056C89.4987 34.3623 89.4861 34.4234 89.4861 34.4851C89.4861 34.5468 89.4987 34.6079 89.523 34.6646C89.5473 34.7213 89.5828 34.7725 89.6275 34.815L96.0828 41.2643C96.4293 41.6482 96.91 41.8844 97.4256 41.9242C97.935 41.8797 98.4114 41.6539 98.7685 41.2879L114.184 25.8206C114.265 25.7299 114.31 25.6124 114.31 25.4907C114.31 25.369 114.265 25.2515 114.184 25.1608H114.176Z" fill="#3ACC6C"/>
<path opacity="0.5" d="M101.894 11.6888C106.688 11.6922 111.333 13.358 115.037 16.4025C118.741 19.447 121.275 23.6818 122.208 28.3856C123.14 33.0894 122.414 37.9711 120.152 42.1993C117.89 46.4275 114.233 49.7406 109.804 51.5742C105.374 53.4078 100.446 53.6485 95.8583 52.2553C91.2711 50.8621 87.3085 47.9212 84.6458 43.9336C81.983 39.9459 80.7846 35.1582 81.2548 30.3859C81.725 25.6136 83.8347 21.152 87.2245 17.761C89.1471 15.8292 91.4335 14.2979 93.9514 13.2556C96.4694 12.2133 99.169 11.6808 101.894 11.6888ZM101.894 8.46021C97.1518 8.46021 92.5161 9.86696 88.5732 12.5025C84.6302 15.1381 81.5572 18.8841 79.7428 23.2668C77.9284 27.6495 77.454 32.472 78.3798 37.1243C79.3055 41.7767 81.5898 46.0499 84.9436 49.4036C88.2974 52.7573 92.5702 55.0408 97.2215 55.9653C101.873 56.8898 106.694 56.4137 111.075 54.5974C115.455 52.781 119.199 49.7059 121.833 45.7609C124.466 41.816 125.871 37.1785 125.87 32.4348C125.871 29.2855 125.251 26.1668 124.047 23.2571C122.842 20.3474 121.076 17.7037 118.849 15.4771C116.623 13.2506 113.979 11.4848 111.07 10.2808C108.16 9.0768 105.043 8.45815 101.894 8.46021Z" fill="#6C63FF"/>
<path opacity="0.8" d="M271.576 92.1908L269.016 89.5671C268.965 89.5117 268.903 89.4677 268.834 89.4379C268.765 89.4081 268.691 89.3932 268.616 89.3943C268.539 89.391 268.463 89.4049 268.392 89.4348C268.321 89.4647 268.258 89.5098 268.207 89.5671L250.514 107.399L244.067 100.957C244.015 100.903 243.953 100.859 243.884 100.83C243.815 100.8 243.741 100.784 243.666 100.785C243.59 100.784 243.515 100.8 243.444 100.829C243.374 100.859 243.311 100.903 243.258 100.957L240.674 103.542C240.618 103.595 240.573 103.659 240.542 103.73C240.512 103.8 240.496 103.877 240.496 103.954C240.496 104.031 240.512 104.108 240.542 104.179C240.573 104.25 240.618 104.314 240.674 104.367L248.794 112.473C249.233 112.956 249.84 113.251 250.491 113.298C251.126 113.244 251.722 112.965 252.171 112.513L271.568 92.9999C271.659 92.889 271.708 92.7503 271.708 92.6071C271.708 92.4639 271.659 92.3252 271.568 92.2143L271.576 92.1908Z" fill="#3ACC6C"/>
<path opacity="0.8" d="M256.106 75.2231C262.146 75.2244 268 77.3208 272.669 81.155C277.337 84.9892 280.533 90.324 281.71 96.2506C282.888 102.177 281.975 108.329 279.127 113.657C276.278 118.986 271.671 123.162 266.09 125.474C260.509 127.786 254.299 128.091 248.519 126.336C242.738 124.582 237.745 120.877 234.389 115.853C231.033 110.829 229.522 104.796 230.114 98.7826C230.706 92.7692 233.364 87.1472 237.635 82.8742C240.054 80.4391 242.932 78.5088 246.103 77.1954C249.274 75.8819 252.674 75.2115 256.106 75.2231ZM256.106 71.1619C250.137 71.1619 244.302 72.9324 239.339 76.2495C234.376 79.5666 230.508 84.2814 228.223 89.7976C225.939 95.3137 225.341 101.384 226.506 107.24C227.67 113.095 230.545 118.474 234.765 122.696C238.986 126.918 244.364 129.793 250.218 130.958C256.072 132.123 262.14 131.525 267.655 129.24C273.169 126.956 277.883 123.086 281.199 118.122C284.515 113.157 286.285 107.321 286.285 101.35C286.286 97.3854 285.506 93.4594 283.99 89.7963C282.474 86.1333 280.251 82.8049 277.448 80.0015C274.645 77.198 271.318 74.9744 267.656 73.4577C263.994 71.941 260.069 71.1608 256.106 71.1619Z" fill="#6C63FF"/>
<path d="M415.689 123.125C423.671 123.131 431.404 125.904 437.572 130.973C443.739 136.042 447.959 143.093 449.512 150.925C451.066 158.757 449.856 166.885 446.091 173.925C442.325 180.966 436.236 186.482 428.86 189.535C421.484 192.588 413.279 192.989 405.641 190.67C398.003 188.35 391.405 183.453 386.971 176.814C382.538 170.174 380.542 162.202 381.325 154.256C382.108 146.31 385.621 138.881 391.265 133.235C394.465 130.018 398.272 127.467 402.464 125.732C406.656 123.997 411.151 123.111 415.689 123.125ZM415.689 117.752C407.797 117.752 400.082 120.093 393.52 124.479C386.959 128.865 381.844 135.098 378.824 142.391C375.804 149.684 375.014 157.71 376.554 165.452C378.093 173.194 381.893 180.306 387.474 185.888C393.054 191.47 400.164 195.272 407.904 196.812C415.644 198.352 423.667 197.561 430.958 194.54C438.249 191.519 444.481 186.404 448.866 179.84C453.25 173.276 455.59 165.559 455.59 157.665C455.591 152.424 454.56 147.233 452.555 142.39C450.55 137.547 447.611 133.147 443.906 129.44C440.2 125.734 435.801 122.794 430.959 120.788C426.118 118.783 420.929 117.751 415.689 117.752Z" fill="#6C63FF"/>
<path d="M369.661 150.431H142.55V377.608H369.661V150.431Z" fill="#F3F5F7"/>
<path d="M690.343 150.431H463.231V377.608H690.343V150.431Z" fill="#F3F5F7"/>
<path opacity="0.1" d="M96.1142 133.188H20.3631V141.609H96.1142V133.188Z" fill="black"/>
<path opacity="0.1" d="M247.616 198.922H171.865V207.343H247.616V198.922Z" fill="black"/>
<path opacity="0.1" d="M356.68 272.943H311.454V281.364H356.68V272.943Z" fill="black"/>
<path opacity="0.1" d="M378.426 329.455H311.454V337.876H378.426V329.455Z" fill="black"/>
<path opacity="0.1" d="M247.616 228.599H171.865V237.02H247.616V228.599Z" fill="black"/>
<path opacity="0.1" d="M588.496 198.922H512.745V207.343H588.496V198.922Z" fill="black"/>
<path opacity="0.1" d="M588.496 228.599H512.745V237.02H588.496V228.599Z" fill="black"/>
<path d="M404.953 169.401L407.074 166.62C409.114 168.62 411.851 169.747 414.707 169.763C418.288 169.763 420.942 168.011 420.942 165.175C420.942 162.096 418.398 160.069 411.346 160.069V156.872C417.628 156.872 419.984 154.806 419.984 152.08C419.984 149.614 417.872 148.074 414.738 148.074C412.297 148.146 409.965 149.1 408.173 150.76L405.919 148.074C408.395 145.859 411.59 144.618 414.911 144.578C420.338 144.578 424.335 147.186 424.335 151.758C424.335 154.979 421.979 157.084 418.586 158.247V158.419C422.222 159.205 425.269 161.617 425.269 165.379C425.269 170.344 420.557 173.321 414.997 173.321C410.27 173.313 407.027 171.514 404.953 169.401Z" fill="#6C63FF"/>
<path opacity="0.1" d="M553.369 222.559H272.628V503.381H553.369V222.559Z" fill="#6C63FF"/>
<path d="M562.793 209.204H282.052V490.026H562.793V209.204Z" fill="white"/>
<path opacity="0.5" d="M533.383 240.312H311.454V248.733H533.383V240.312Z" fill="#6C63FF"/>
<path opacity="0.1" d="M452.771 301.199H311.454V309.62H452.771V301.199Z" fill="black"/>
<path opacity="0.1" d="M448.57 357.718H311.454V366.139H448.57V357.718Z" fill="black"/>
<path opacity="0.1" d="M498.366 385.974H311.454V394.395H498.366V385.974Z" fill="black"/>
<path opacity="0.5" d="M492.798 301.945L491.832 300.947C491.79 300.908 491.734 300.885 491.675 300.885C491.619 300.885 491.566 300.908 491.526 300.947L484.827 307.703L482.385 305.26C482.341 305.222 482.286 305.199 482.228 305.197C482.172 305.199 482.119 305.222 482.079 305.26L481.097 306.242C481.076 306.262 481.06 306.287 481.048 306.314C481.037 306.341 481.031 306.37 481.031 306.399C481.031 306.428 481.037 306.457 481.048 306.484C481.06 306.511 481.076 306.536 481.097 306.556L484.175 309.628C484.343 309.81 484.573 309.922 484.819 309.942C485.062 309.921 485.288 309.812 485.456 309.635L492.798 302.259C492.834 302.215 492.853 302.159 492.853 302.102C492.853 302.045 492.834 301.99 492.798 301.945Z" fill="#3ACC6C"/>
<path opacity="0.5" d="M486.948 295.504C489.237 295.502 491.456 296.295 493.227 297.747C494.998 299.198 496.211 301.219 496.658 303.465C497.106 305.711 496.762 308.043 495.683 310.064C494.605 312.084 492.859 313.667 490.744 314.545C488.629 315.422 486.276 315.538 484.085 314.874C481.893 314.209 480 312.806 478.728 310.902C477.456 308.998 476.883 306.711 477.107 304.432C477.332 302.153 478.339 300.022 479.958 298.402C480.874 297.481 481.963 296.75 483.163 296.252C484.362 295.755 485.649 295.5 486.948 295.504ZM486.948 293.972C484.687 293.97 482.477 294.64 480.597 295.895C478.716 297.15 477.251 298.935 476.385 301.024C475.519 303.113 475.292 305.412 475.733 307.629C476.173 309.847 477.262 311.885 478.86 313.483C480.459 315.082 482.495 316.171 484.712 316.612C486.93 317.053 489.228 316.826 491.316 315.96C493.404 315.093 495.189 313.627 496.444 311.747C497.699 309.866 498.368 307.655 498.366 305.394C498.362 302.367 497.157 299.466 495.016 297.327C492.875 295.189 489.973 293.988 486.948 293.988V293.972Z" fill="#3ACC6C"/>
<path opacity="0.5" d="M492.798 358.457L491.832 357.467C491.812 357.446 491.788 357.429 491.761 357.418C491.733 357.408 491.704 357.403 491.675 357.404C491.647 357.403 491.619 357.408 491.594 357.419C491.568 357.429 491.545 357.446 491.526 357.467L484.827 364.215L482.385 361.779C482.365 361.758 482.341 361.74 482.314 361.728C482.287 361.716 482.258 361.709 482.228 361.709C482.199 361.71 482.172 361.716 482.146 361.728C482.12 361.741 482.097 361.758 482.079 361.779L481.097 362.754C481.076 362.774 481.06 362.798 481.048 362.825C481.037 362.852 481.031 362.881 481.031 362.911C481.031 362.94 481.037 362.969 481.048 362.996C481.06 363.023 481.076 363.047 481.097 363.068L484.175 366.147C484.343 366.329 484.573 366.441 484.819 366.461C485.061 366.437 485.286 366.329 485.456 366.155L492.798 358.771C492.834 358.726 492.853 358.671 492.853 358.614C492.853 358.557 492.834 358.501 492.798 358.457Z" fill="#3ACC6C"/>
<path opacity="0.5" d="M486.948 352.062C489.237 352.061 491.456 352.853 493.227 354.305C494.998 355.757 496.211 357.778 496.658 360.024C497.106 362.27 496.762 364.602 495.683 366.622C494.605 368.642 492.859 370.226 490.744 371.103C488.629 371.98 486.276 372.097 484.085 371.432C481.893 370.768 480 369.364 478.728 367.46C477.456 365.556 476.883 363.27 477.107 360.99C477.332 358.711 478.339 356.58 479.958 354.961C480.874 354.039 481.963 353.309 483.163 352.811C484.362 352.314 485.649 352.059 486.948 352.062ZM486.948 350.491C484.687 350.49 482.477 351.159 480.597 352.414C478.717 353.669 477.252 355.453 476.385 357.542C475.519 359.63 475.292 361.928 475.732 364.146C476.172 366.364 477.26 368.401 478.857 370C480.455 371.599 482.491 372.689 484.708 373.13C486.924 373.572 489.222 373.346 491.311 372.481C493.399 371.616 495.184 370.151 496.44 368.272C497.696 366.392 498.366 364.182 498.366 361.921C498.367 360.42 498.072 358.934 497.499 357.548C496.926 356.161 496.085 354.901 495.024 353.839C493.964 352.778 492.705 351.936 491.319 351.362C489.933 350.787 488.448 350.491 486.948 350.491Z" fill="#3ACC6C"/>
<path opacity="0.1" d="M402.48 624C433.451 624 458.559 619.787 458.559 614.589C458.559 609.392 433.451 605.179 402.48 605.179C371.508 605.179 346.401 609.392 346.401 614.589C346.401 619.787 371.508 624 402.48 624Z" fill="#6C63FF"/>
<path d="M102.805 544.668C102.805 544.668 105.726 548.494 101.454 554.276C97.1822 560.057 93.6483 564.927 95.0776 568.533C95.0776 568.533 101.525 557.803 106.779 557.653C112.032 557.504 108.577 551.126 102.805 544.668Z" fill="#6C63FF"/>
<path opacity="0.1" d="M102.805 544.668C103.059 545.039 103.26 545.444 103.402 545.87C108.522 551.895 111.255 557.512 106.331 557.653C101.745 557.787 96.2398 565.988 94.9205 568.062C94.9622 568.222 95.0147 568.38 95.0776 568.533C95.0776 568.533 101.525 557.803 106.779 557.653C112.032 557.504 108.577 551.126 102.805 544.668Z" fill="black"/>
<path d="M108.239 549.547C108.239 550.898 108.09 551.99 107.902 551.99C107.713 551.99 107.564 550.898 107.564 549.547C107.564 548.196 107.752 548.832 107.941 548.832C108.129 548.832 108.239 548.203 108.239 549.547Z" fill="#FFD037"/>
<path d="M110.108 551.157C108.923 551.801 107.894 552.194 107.807 552.029C107.721 551.864 108.593 551.243 109.786 550.56C110.98 549.877 110.501 550.387 110.572 550.56C110.642 550.733 111.286 550.513 110.108 551.157Z" fill="#FFD037"/>
<path d="M87.3501 544.668C87.3501 544.668 84.4209 548.494 88.7008 554.276C92.9808 560.057 96.499 564.927 95.0776 568.533C95.0776 568.533 88.6223 557.803 83.3764 557.653C78.1306 557.504 81.5702 551.126 87.3501 544.668Z" fill="#6C63FF"/>
<path opacity="0.1" d="M87.3501 544.668C87.0957 545.039 86.8948 545.444 86.7533 545.87C81.6252 551.895 78.9002 557.512 83.8241 557.653C88.4103 557.787 93.9153 565.988 95.2346 568.062C95.1875 568.219 95.1404 568.376 95.0776 568.533C95.0776 568.533 88.6223 557.803 83.3764 557.653C78.1306 557.504 81.5702 551.126 87.3501 544.668Z" fill="black"/>
<path d="M81.9079 549.547C81.9079 550.898 82.0571 551.99 82.2456 551.99C82.4341 551.99 82.5833 550.898 82.5833 549.547C82.5833 548.196 82.3948 548.832 82.2063 548.832C82.0178 548.832 81.9079 548.203 81.9079 549.547Z" fill="#FFD037"/>
<path d="M80.0467 551.157C81.2247 551.801 82.2535 552.194 82.3477 552.029C82.4419 551.864 81.5624 551.243 80.3687 550.56C79.175 549.877 79.6541 550.387 79.5834 550.56C79.5127 550.733 78.8609 550.513 80.0467 551.157Z" fill="#FFD037"/>
<path opacity="0.1" d="M95.0776 597.81C111.971 597.81 125.665 595.707 125.665 593.113C125.665 590.518 111.971 588.415 95.0776 588.415C78.1844 588.415 64.4897 590.518 64.4897 593.113C64.4897 595.707 78.1844 597.81 95.0776 597.81Z" fill="#6C63FF"/>
<path d="M110.823 563.372L110.674 564.574L110.47 566.255L110.383 566.962L110.179 568.651L110.093 569.358L109.881 571.039L107.525 590.238C107.321 591.95 104.517 593.286 101.14 593.286H88.9914C85.6146 593.286 82.8189 591.95 82.6147 590.238L80.2588 571.039L80.0546 569.358L79.9682 568.651L79.764 566.962L79.6776 566.255L79.4734 564.574L79.3164 563.372C79.1986 562.406 80.7142 561.589 82.6225 561.589H107.501C109.425 561.589 110.941 562.406 110.823 563.372Z" fill="#65617D"/>
<path d="M110.674 564.566L110.47 566.255H79.6855L79.4734 564.566H110.674Z" fill="#9D9CB5"/>
<path d="M110.383 566.962L110.179 568.651H79.976L79.7719 566.962H110.383Z" fill="#9D9CB5"/>
<path d="M110.093 569.35L109.881 571.039H80.2666L80.0624 569.35H110.093Z" fill="#9D9CB5"/>
<path opacity="0.1" d="M463.993 362.754C463.467 361.677 459.281 347.828 459.281 347.828L451.216 327.349C451.216 327.349 446.323 300.398 439.02 307.122C431.717 313.846 442.947 329.981 442.947 329.981C442.947 329.981 447.556 341.764 447.321 344.121C447.085 346.477 449.889 355.118 449.889 355.118L448.978 360.083C447.792 360.004 447.022 360.004 447.022 360.004C447.022 360.004 446.3 361.041 445.609 361.112C445.492 361.128 445.372 361.112 445.263 361.065C444.478 360.711 441.879 360.782 440.551 360.782C439.319 360.616 438.125 360.233 437.025 359.651C436.57 358.74 433.994 358.198 431.709 357.891C429.973 353.571 427.531 349.368 427.193 344.859C427.027 343.632 427.27 342.384 427.884 341.308C428.037 341.078 428.21 340.862 428.403 340.664C429.039 340.02 429.816 339.455 430.523 338.858C430.876 338.559 431.198 338.253 431.505 337.939C437.497 332.126 436.546 323.123 431.112 316.894C424.83 309.691 396.496 294.192 387.92 307.468C386.726 309.321 386.687 311.466 386.349 313.524C385.495 318.558 383.134 323.214 379.58 326.878C376.737 329.902 373.007 332.691 371.373 336.116L371.318 335.99C370.929 336.733 370.644 337.526 370.47 338.347C369.646 342.518 372.457 346.532 373.934 350.594C374.436 351.973 374.799 353.399 375.017 354.851L375.112 353.956C375.473 356.03 375.597 358.138 375.481 360.24C365.193 362.345 365.185 380.083 365.185 380.083C365.185 380.083 363.921 387.152 364.133 389.674C364.345 392.196 364.345 397.71 364.345 399.053C364.345 400.397 363.073 408.645 362.931 409.635C362.751 410.726 360.819 415.958 365.484 417.136C365.806 417.223 366.151 417.294 366.505 417.356C366.701 421.59 367.07 430.475 366.748 432.439C366.748 432.439 368.444 444.363 369.85 447.364C370.753 449.138 371.804 450.833 372.991 452.431C372.892 453.155 372.649 453.852 372.277 454.481C371.562 455.526 371.931 456.382 373.133 456.751C373.096 457.113 373.049 457.521 372.991 457.977C372.481 462.58 371.711 471.716 372.991 476.35C374.79 482.697 374.892 484.811 374.892 484.811C374.891 485.843 375.144 486.861 375.63 487.772C376.415 488.833 377.75 498.667 377.75 500.254C377.75 501.841 381.347 516.122 380.287 519.508C379.227 522.893 380.075 527.654 380.075 527.654C380.075 527.654 379.439 536.012 378.7 537.811C377.962 539.61 377.64 568.596 378.802 576.106C379.965 583.616 380.711 589.861 380.711 589.861C380.711 589.861 379.925 596.734 380.601 597.716C381.276 598.698 382.399 604.385 381.551 604.699C380.703 605.014 380.287 607.347 380.287 607.347C380.734 608.029 381.216 608.687 381.732 609.318C381.404 609.203 381.084 609.067 380.774 608.91C381.111 609.389 381.614 610.049 382.226 610.772L381.653 618.376C381.628 618.673 381.709 618.971 381.882 619.215C382.054 619.459 382.307 619.635 382.596 619.711C384.452 620.22 386.412 620.212 388.264 619.688C390.116 619.163 391.789 618.141 393.103 616.734C398.388 611.337 400.171 612.083 401.145 608.8C401.239 608.446 401.333 608.109 401.404 607.779C401.549 607.146 401.512 606.485 401.297 605.872C401.083 605.26 400.698 604.72 400.189 604.317C399.68 603.914 399.068 603.664 398.422 603.595C397.777 603.527 397.125 603.643 396.543 603.93C396.88 601.573 397.147 598.989 396.888 597.504C396.362 594.44 396.464 586.396 396.464 586.396L395.726 547.905C395.726 547.905 397.1 540.293 398.687 537.332C400.273 534.37 400.061 523.977 400.061 523.977L401.859 489.909L403.65 473.412C403.65 473.412 405.338 467.702 407.451 474.049C407.451 474.049 406.288 486.845 406.822 489.917C407.356 492.988 408.087 507.898 407.561 511.181C407.034 514.465 404.702 532.446 406.186 536.994C407.67 541.542 409.249 547.041 408.935 548.84C408.621 550.639 407.561 589.688 407.561 589.688C407.561 589.688 410.411 597.198 408.299 599.633C406.186 602.068 408.197 611.801 408.197 611.801C408.197 611.801 408.448 611.981 408.888 612.241L408.825 613.026L408.165 621.777C408.142 622.075 408.224 622.371 408.396 622.615C408.568 622.859 408.82 623.035 409.108 623.112C410.964 623.62 412.924 623.611 414.775 623.086C416.627 622.562 418.301 621.541 419.615 620.135C424.9 614.739 426.683 615.477 427.657 612.201C427.751 611.848 427.845 611.502 427.924 611.172C428.083 610.472 428.02 609.739 427.742 609.077C427.464 608.414 426.986 607.855 426.374 607.479C425.763 607.102 425.049 606.926 424.332 606.975C423.616 607.025 422.933 607.298 422.379 607.755C422.344 607.793 422.304 607.828 422.262 607.857C422.128 607.975 421.987 608.077 421.845 608.179L421.641 608.313C422.167 605.893 422.937 601.769 422.576 599.821C422.05 596.962 423.102 588.289 423.102 588.289C423.102 588.289 426.172 577.92 426.243 573.796C426.314 569.672 427.091 540.804 427.091 540.804C427.091 540.804 426.989 527.371 427.413 524.095C427.837 520.82 431.214 492.462 434.599 484.033C437.198 477.544 438.36 461.009 437.669 452.611C437.63 452.187 437.591 451.826 437.552 451.417C441.69 448.307 442.13 443.185 442.13 443.185C442.13 443.185 438.321 435.848 434.654 432.745C430.986 429.642 430.138 424.285 430.28 422.023C430.344 420.642 429.894 419.287 429.015 418.22C429.015 418.22 427.319 412.722 426.188 412.156C426.095 412.11 426.013 412.046 425.945 411.968C425.159 411.135 425.764 408.77 425.764 408.77V408.7C425.89 408.15 426.714 404.599 426.447 403.688C426.18 402.777 426.589 398.048 426.589 398.048C426.589 398.048 429.274 390.012 428.85 383.665C428.426 377.318 434.348 377.875 434.348 377.875L452.637 377.687H454.718C455.596 376.938 456.386 376.092 457.074 375.165C457.78 375.298 458.506 375.278 459.203 375.107C459.901 374.937 460.554 374.619 461.119 374.175C464.998 370.625 464.519 363.846 463.993 362.754ZM378.936 417.741L379.069 414.521L379.784 415.133C380.002 415.978 380.002 416.865 379.784 417.71C379.673 418.107 379.475 418.474 379.203 418.784C378.931 419.094 378.593 419.339 378.213 419.501C378.123 419.546 378.036 419.598 377.954 419.658L377.774 417.82C378.52 417.773 378.936 417.733 378.936 417.733V417.741Z" fill="black"/>
<path d="M447.549 368.999C447.549 368.999 457.962 375.699 461.904 372.141C465.846 368.582 465.359 361.717 464.825 360.633C464.291 359.549 460.051 345.605 460.051 345.605L451.86 324.961C451.86 324.961 446.881 297.79 439.452 304.537C432.023 311.285 443.457 327.577 443.457 327.577C443.457 327.577 448.169 339.462 447.902 341.843C447.635 344.223 450.509 352.942 450.509 352.942L447.549 368.999Z" fill="url(#paint0_linear)"/>
<path d="M428.128 611.078C428.049 611.416 427.963 611.761 427.853 612.115C426.887 615.422 425.057 614.676 419.686 620.112C418.344 621.533 416.642 622.563 414.761 623.091C412.88 623.62 410.891 623.627 409.006 623.112C408.714 623.036 408.458 622.86 408.283 622.614C408.108 622.369 408.025 622.07 408.047 621.769L408.723 612.947L409.045 608.698C409.045 608.698 417.597 611.101 421.955 608.061C422.097 607.959 422.238 607.857 422.372 607.739L422.497 607.637C423.058 607.178 423.748 606.904 424.471 606.854C425.194 606.804 425.915 606.98 426.533 607.358C427.152 607.736 427.638 608.297 427.923 608.964C428.209 609.63 428.281 610.369 428.128 611.078Z" fill="url(#paint1_linear)"/>
<path d="M401.294 607.747C401.223 608.085 401.129 608.431 401.027 608.784C400.061 612.091 398.231 611.345 392.86 616.781C391.517 618.201 389.815 619.23 387.935 619.76C386.054 620.29 384.065 620.3 382.179 619.79C381.885 619.714 381.628 619.537 381.452 619.29C381.277 619.042 381.195 618.741 381.221 618.438L381.889 609.617L382.219 605.367C382.219 605.367 390.771 607.771 395.121 604.731C395.27 604.629 395.404 604.527 395.545 604.409L395.671 604.307C396.231 603.845 396.921 603.57 397.644 603.519C398.368 603.468 399.089 603.644 399.708 604.023C400.327 604.402 400.812 604.964 401.096 605.631C401.381 606.299 401.45 607.039 401.294 607.747Z" fill="url(#paint2_linear)"/>
<g opacity="0.1">
<path opacity="0.1" d="M392.435 609.075L392.789 613.654C387.873 618.525 382.03 611.298 380.302 608.894C384.802 611.204 392.435 609.075 392.435 609.075Z" fill="url(#paint3_linear)"/>
</g>
<g opacity="0.1">
<path opacity="0.1" d="M421.296 610.936L421.947 610.512C417.455 617.284 410.796 614.157 408.723 612.947L409.045 608.698C409.045 608.698 417.597 611.101 421.955 608.061C421.61 609.719 421.296 610.936 421.296 610.936Z" fill="url(#paint4_linear)"/>
</g>
<path d="M434.952 482.847C431.513 491.378 428.073 519.963 427.641 523.27C427.209 526.578 427.319 540.12 427.319 540.12L426.424 573.396C426.322 577.559 423.204 588.007 423.204 588.007C423.204 588.007 422.128 596.758 422.662 599.633C423.196 602.508 421.264 610.088 421.264 610.088L421.916 609.664C416.537 617.763 408.047 611.683 408.047 611.683C408.047 611.683 406.006 601.871 408.15 599.421C410.293 596.97 407.404 589.397 407.404 589.397C407.404 589.397 408.472 550.042 408.801 548.227C409.131 546.412 407.576 540.867 406.006 536.279C404.435 531.691 406.862 513.561 407.404 510.254C407.945 506.947 407.184 491.912 406.618 488.817C406.053 485.722 407.262 472.815 407.262 472.815C405.11 466.421 403.391 472.179 403.391 472.179L401.671 488.927L399.904 523.31C399.904 523.31 400.124 533.757 398.506 536.742C396.888 539.727 395.498 547.41 395.498 547.41L396.283 586.231C396.283 586.231 396.174 594.338 396.715 597.433C397.257 600.528 395.53 608.525 395.53 608.525C389.514 622.602 379.823 607.354 379.823 607.354C379.823 607.354 380.247 604.998 381.111 604.684C381.975 604.369 380.789 598.604 380.145 597.614C379.501 596.624 380.247 589.758 380.247 589.758C380.247 589.758 379.501 583.474 378.316 575.886C377.13 568.297 377.46 539.091 378.206 537.277C378.952 535.462 379.603 527.065 379.603 527.065C379.603 527.065 378.747 522.265 379.823 518.848C380.899 515.431 377.24 501.04 377.24 499.437C377.24 497.835 375.842 487.921 375.088 486.869C374.582 485.954 374.312 484.928 374.303 483.884C374.303 483.884 374.193 481.747 372.363 475.353C371.028 470.639 371.813 461.464 372.363 456.83C372.551 455.109 372.708 454.017 372.708 454.017C372.708 454.017 434.41 444.096 436.884 446.343C437.465 446.861 437.85 448.699 438.07 451.26C438.769 459.634 437.583 476.311 434.952 482.847Z" fill="url(#paint5_linear)"/>
<g opacity="0.1">
<path opacity="0.1" d="M411.621 530.804C411.911 530.804 418.688 531.377 421.225 530.875C423.762 530.372 411.621 530.804 411.621 530.804Z" fill="url(#paint6_linear)"/>
</g>
<g opacity="0.1">
<path opacity="0.1" d="M412.123 534.786C412.123 534.786 421.547 536.42 422.018 535.572C422.489 534.724 412.123 534.786 412.123 534.786Z" fill="url(#paint7_linear)"/>
</g>
<g opacity="0.1">
<path opacity="0.1" d="M383.389 533.082C383.389 533.082 388.258 533.294 390.912 534.504C393.566 535.713 383.389 533.082 383.389 533.082Z" fill="url(#paint8_linear)"/>
</g>
<path d="M365.688 413.484C365.688 413.484 366.473 428.346 366.049 430.97C366.049 430.97 367.769 442.989 369.19 446.044C370.473 448.482 371.985 450.791 373.706 452.941L377.931 423.436L376.949 413.334L365.688 413.484Z" fill="url(#paint9_linear)"/>
<path d="M410.121 345.786C419.263 345.786 426.675 338.432 426.675 329.36C426.675 320.289 419.263 312.935 410.121 312.935C400.978 312.935 393.566 320.289 393.566 329.36C393.566 338.432 400.978 345.786 410.121 345.786Z" fill="url(#paint10_linear)"/>
<path d="M401.522 337.043C401.522 337.043 396.362 347.066 391.203 351.764C386.043 356.461 422.159 361.787 423.015 361.787C423.871 361.787 416.568 340.46 417.856 337.899C419.144 335.338 401.522 337.043 401.522 337.043Z" fill="url(#paint11_linear)"/>
<g opacity="0.1">
<path opacity="0.1" d="M438.07 451.182C437.26 451.797 436.366 452.295 435.416 452.658C428.827 455.219 421.657 458.778 416.78 457.372C411.903 455.966 401.592 457.372 401.592 457.372C401.592 457.372 380.805 455.659 376.651 456.657C375.258 457.08 373.776 457.118 372.363 456.767C372.551 455.046 372.708 453.955 372.708 453.955C372.708 453.955 434.41 444.033 436.884 446.28C437.465 446.783 437.85 448.597 438.07 451.182Z" fill="url(#paint12_linear)"/>
</g>
<path d="M442.585 441.708C442.585 441.708 442.012 448.778 435.416 451.378C428.819 453.978 421.657 457.497 416.78 456.091C411.903 454.685 401.592 456.091 401.592 456.091C401.592 456.091 380.805 454.379 376.651 455.376C372.496 456.374 370.368 455.094 371.633 453.24C372.897 451.386 372.787 445.282 372.787 442.721C372.787 440.161 371.35 429.776 372.638 427.93C373.926 426.084 375.072 418.975 377.656 417.836C378.043 417.675 378.388 417.429 378.667 417.116C378.946 416.803 379.15 416.432 379.266 416.029C379.491 415.177 379.491 414.281 379.266 413.429C379.266 413.429 378.834 413.075 378.229 412.541C376.714 411.198 374.138 408.7 374.962 407.883C376.109 406.744 374.962 399.344 374.962 399.344C374.962 399.344 372.237 393.657 373.243 391.528C374.248 389.399 364.502 378.174 364.502 378.174C364.502 378.174 364.502 358.834 376.282 357.978C376.282 357.978 384.59 358.268 385.595 354.568C386.601 350.868 393.189 348.732 393.189 348.732L408.236 352.007C408.236 352.007 421.586 354.851 424.005 353.147C426.424 351.442 428.308 355.417 428.308 355.417C428.308 355.417 436.617 355.849 437.481 357.553C438.345 359.258 434.756 375.896 434.756 375.896C434.756 375.896 428.733 375.33 429.164 381.732C429.596 388.134 426.871 396.233 426.871 396.233C426.871 396.233 426.439 400.947 426.73 401.921C427.021 402.895 426.165 406.414 426.031 406.972V407.042C426.031 407.042 425.434 409.399 426.212 410.271C426.287 410.345 426.371 410.408 426.463 410.459C427.61 411.025 429.329 416.571 429.329 416.571C430.226 417.645 430.688 419.015 430.625 420.412C430.484 422.69 431.34 428.087 435.062 431.221C438.785 434.355 442.585 441.708 442.585 441.708Z" fill="url(#paint13_linear)"/>
<path d="M378.653 408.786V409.391L378.386 416.045C378.386 416.045 369.575 416.752 364.769 415.542C359.963 414.332 361.997 409.077 362.185 407.977C362.327 406.979 363.615 398.661 363.615 397.309C363.615 395.958 363.615 390.412 363.403 387.883C363.19 385.354 364.478 378.213 364.478 378.213L365.405 377.074L375.512 380.915L378.653 408.786Z" fill="url(#paint14_linear)"/>
<g opacity="0.1">
<path opacity="0.1" d="M378.638 409.407L378.371 416.06C378.371 416.06 369.559 416.767 364.753 415.558C359.947 414.348 361.981 409.093 362.17 407.993L378.638 409.407Z" fill="url(#paint15_linear)"/>
</g>
<g opacity="0.1">
<path opacity="0.1" d="M379.305 416.013C379.53 415.161 379.53 414.265 379.305 413.413C379.305 413.413 378.873 413.059 378.268 412.525C385.862 411.481 415.916 407.38 426.047 406.94V407.011C426.047 407.011 425.45 409.367 426.227 410.239L379.305 416.013Z" fill="url(#paint16_linear)"/>
</g>
<g opacity="0.1">
<path opacity="0.1" d="M427.107 421.19C427.107 421.19 428.968 431.645 422.018 435.33C422.018 435.33 425.96 430.121 427.107 421.19Z" fill="url(#paint17_linear)"/>
</g>
<g opacity="0.1">
<path opacity="0.1" d="M381.598 435.597C381.598 435.597 398.365 432.753 401.663 434.952C404.961 437.152 381.598 435.597 381.598 435.597Z" fill="url(#paint18_linear)"/>
</g>
<g opacity="0.1">
<path opacity="0.1" d="M421.296 370.821C421.296 370.821 418.72 381.339 420.652 383.759C422.584 386.178 421.296 370.821 421.296 370.821Z" fill="url(#paint19_linear)"/>
</g>
<g opacity="0.1">
<path opacity="0.1" d="M372.708 362.212C372.708 362.212 375.064 366.139 373.643 370.177C372.222 374.215 372.708 362.212 372.708 362.212Z" fill="url(#paint20_linear)"/>
</g>
<path d="M367.84 396.485C367.84 396.485 370.847 398.268 369.842 401.041C368.837 403.814 367.84 396.485 367.84 396.485Z" fill="url(#paint21_linear)"/>
<g opacity="0.1">
<path opacity="0.1" d="M367.525 388.378C367.525 388.378 370.321 389.878 370.667 392.078C371.012 394.277 367.525 388.378 367.525 388.378Z" fill="url(#paint22_linear)"/>
</g>
<g opacity="0.1">
<path opacity="0.1" d="M408.974 473.42C408.974 473.42 426.534 475.203 430.044 471.064C430.044 471.079 414.204 474.206 408.974 473.42Z" fill="url(#paint23_linear)"/>
</g>
<g opacity="0.1">
<path opacity="0.1" d="M378.661 472.43C378.661 472.43 397.509 476.837 401.231 473.35C401.231 473.35 385.038 474.559 378.661 472.43Z" fill="url(#paint24_linear)"/>
</g>
<g opacity="0.1">
<path opacity="0.1" d="M410.333 479.186C410.333 479.186 418.186 479.186 421.869 479.398C425.552 479.61 410.333 479.186 410.333 479.186Z" fill="url(#paint25_linear)"/>
</g>
<g opacity="0.1">
<path opacity="0.1" d="M379.949 482.525C379.949 482.525 383.821 486.861 388.187 486.083C392.553 485.305 379.949 482.525 379.949 482.525Z" fill="url(#paint26_linear)"/>
</g>
<path d="M387.551 304.93C386.334 306.8 386.294 308.96 385.98 311.034C385.115 316.13 382.715 320.842 379.101 324.537C375.661 328.166 370.942 331.45 370.054 335.88C369.214 340.091 372.072 344.136 373.572 348.229C377.499 359.03 372.002 370.35 370.392 381.496C369.952 384.576 370.486 388.511 374.318 389.533C375.512 389.855 376.878 389.815 377.947 390.318C379.391 391.002 379.831 392.423 380.098 393.704C381.055 398.28 381.385 402.966 381.08 407.631C380.907 410.255 380.719 413.264 383.208 415.063C384.478 415.846 385.876 416.399 387.339 416.696C391.265 417.749 396.346 418.59 398.993 416.131C400.108 415.102 400.563 413.641 401.906 412.824C403.98 411.606 406.924 412.431 409.54 412.557C412.011 412.663 414.465 412.105 416.649 410.942C418.832 409.779 420.664 408.053 421.955 405.942C424.068 402.164 423.887 397.859 423.102 393.79C422.317 389.721 420.966 385.699 420.864 381.583C420.742 380.141 421.065 378.696 421.79 377.443C423.361 374.992 427.107 373.877 429.643 371.944C434.402 368.331 434.355 362.408 432.659 357.451C430.963 352.494 427.822 347.758 427.437 342.636C427.268 341.397 427.516 340.136 428.144 339.054C428.975 338.026 429.948 337.122 431.033 336.367C437.983 330.546 437.167 320.979 431.418 314.435C425.042 307.153 396.229 291.521 387.551 304.93Z" fill="url(#paint27_linear)"/>
<g opacity="0.1">
<path opacity="0.1" d="M374.452 352.699C375.136 348.4 374.761 344 373.36 339.879C372.575 337.813 371.499 335.755 370.706 333.689C370.307 334.429 370.016 335.223 369.842 336.045C368.994 340.248 371.86 344.293 373.36 348.394C373.866 349.789 374.232 351.231 374.452 352.699Z" fill="url(#paint28_linear)"/>
<path opacity="0.1" d="M380.876 399.281C381.182 394.615 380.849 389.929 379.886 385.354C379.619 384.073 379.179 382.651 377.742 381.968C376.666 381.457 375.3 381.497 374.106 381.182C373.377 381.007 372.697 380.669 372.118 380.192C371.538 379.716 371.074 379.115 370.761 378.433C370.549 379.517 370.353 380.601 370.196 381.677C369.748 384.757 370.282 388.692 374.122 389.713C375.316 390.035 376.682 389.996 377.758 390.499C379.195 391.182 379.635 392.604 379.902 393.884C380.347 396.007 380.656 398.156 380.829 400.318C380.813 399.98 380.876 399.627 380.876 399.281Z" fill="url(#paint29_linear)"/>
<path opacity="0.1" d="M421.712 397.624C420.422 399.733 418.591 401.459 416.409 402.622C414.227 403.785 411.774 404.343 409.304 404.238C406.689 404.112 403.744 403.287 401.671 404.505C400.289 405.29 399.865 406.783 398.757 407.812C396.111 410.271 391.03 409.43 387.103 408.378C385.64 408.083 384.241 407.529 382.972 406.744C381.888 405.96 381.157 404.78 380.939 403.46C380.939 404.921 380.939 406.39 380.844 407.851C380.672 410.467 380.483 413.476 382.972 415.275C384.241 416.06 385.64 416.614 387.103 416.909C391.03 417.969 396.111 418.802 398.757 416.343C399.865 415.314 400.328 413.861 401.671 413.044C403.744 411.818 406.689 412.643 409.304 412.777C411.775 412.883 414.23 412.325 416.412 411.16C418.594 409.995 420.424 408.267 421.712 406.155C423.746 402.525 423.659 398.409 422.953 394.481C422.681 395.579 422.263 396.636 421.712 397.624Z" fill="url(#paint30_linear)"/>
<path opacity="0.1" d="M430.814 328.025C429.726 328.779 428.75 329.684 427.916 330.712C427.292 331.795 427.046 333.055 427.217 334.294C427.35 335.85 427.68 337.384 428.198 338.858C429 338.014 429.875 337.244 430.814 336.556C435.525 332.628 436.656 326.972 435.133 321.701C434.326 324.179 432.827 326.373 430.814 328.025Z" fill="url(#paint31_linear)"/>
<path opacity="0.1" d="M429.424 363.602C426.879 365.527 423.141 366.642 421.571 369.101C420.842 370.352 420.518 371.798 420.644 373.241C420.703 374.905 420.908 376.561 421.256 378.19C421.35 377.998 421.455 377.812 421.571 377.632C423.141 375.189 426.879 374.065 429.424 372.133C433.766 368.834 434.135 363.61 432.848 358.952C432.191 360.806 430.999 362.425 429.424 363.602Z" fill="url(#paint32_linear)"/>
</g>
<path d="M462.148 365.346C459.21 372.738 455.41 375.652 455.41 375.652H453.297L434.701 375.841L432.549 370.012L435.565 357.443L437.418 357.561C438.536 358.148 439.748 358.534 440.999 358.7C442.358 358.7 445.012 358.63 445.797 358.983C445.908 359.033 446.031 359.049 446.151 359.03C446.85 358.959 447.596 357.915 447.596 357.915C447.596 357.915 465.085 357.946 462.148 365.346Z" fill="url(#paint33_linear)"/>
<g opacity="0.1">
<path opacity="0.1" d="M462.147 365.346C459.21 372.738 455.409 375.652 455.409 375.652H453.297C454.396 372.722 456.721 366.705 457.632 365.322C458.543 363.94 450.713 360.735 446.159 358.967C446.857 358.897 447.604 357.852 447.604 357.852C447.604 357.852 465.084 357.946 462.147 365.346Z" fill="url(#paint34_linear)"/>
</g>
<path d="M446.999 371.072C446.999 371.072 457.208 377.718 461.134 374.167C465.061 370.617 464.535 363.83 464.009 362.754C463.482 361.677 459.297 347.828 459.297 347.828L451.232 327.349C451.232 327.349 446.339 300.398 439.036 307.122C431.732 313.846 442.962 329.981 442.962 329.981C442.962 329.981 447.572 341.764 447.337 344.121C447.101 346.477 449.905 355.118 449.905 355.118L446.999 371.072Z" fill="#BE7C5E"/>
<path d="M427.892 611.18C427.814 611.51 427.72 611.855 427.625 612.209C426.667 615.485 424.869 614.746 419.584 620.143C418.269 621.549 416.596 622.569 414.744 623.094C412.892 623.619 410.933 623.628 409.076 623.12C408.788 623.042 408.536 622.866 408.364 622.622C408.192 622.379 408.111 622.082 408.134 621.785L408.794 613.034L409.116 608.823C409.116 608.823 417.534 611.18 421.814 608.187C421.955 608.085 422.097 607.983 422.23 607.865C422.273 607.835 422.312 607.801 422.348 607.763C422.902 607.305 423.585 607.033 424.301 606.983C425.018 606.933 425.732 607.109 426.343 607.486C426.954 607.863 427.433 608.422 427.71 609.084C427.988 609.747 428.052 610.48 427.892 611.18Z" fill="black"/>
<path d="M401.467 607.881C401.396 608.211 401.302 608.549 401.207 608.902C400.249 612.186 398.451 611.439 393.166 616.836C391.852 618.243 390.179 619.265 388.327 619.79C386.475 620.314 384.515 620.322 382.658 619.813C382.37 619.737 382.117 619.561 381.944 619.317C381.772 619.073 381.691 618.776 381.716 618.478L382.376 609.727L382.698 605.516C382.698 605.516 391.116 607.873 395.396 604.88C395.54 604.783 395.679 604.678 395.812 604.566L395.93 604.456C396.485 604 397.168 603.73 397.883 603.682C398.599 603.634 399.312 603.811 399.922 604.188C400.533 604.566 401.01 605.125 401.286 605.787C401.563 606.449 401.626 607.181 401.467 607.881Z" fill="black"/>
<path opacity="0.1" d="M392.773 609.193L393.119 613.741C388.289 618.564 382.533 611.384 380.836 609.028C385.281 611.29 392.773 609.193 392.773 609.193Z" fill="black"/>
<path opacity="0.1" d="M421.17 611.039L421.806 610.622C417.393 617.331 410.812 614.236 408.794 613.034L409.116 608.823C409.116 608.823 417.534 611.18 421.814 608.187C421.476 609.829 421.17 611.039 421.17 611.039Z" fill="black"/>
<path d="M434.599 484.033C431.214 492.493 427.829 520.843 427.413 524.095C426.997 527.347 427.091 540.804 427.091 540.804L426.243 573.796C426.141 577.92 423.102 588.289 423.102 588.289C423.102 588.289 422.05 596.93 422.576 599.821C423.102 602.712 421.201 610.19 421.201 610.19L421.838 609.766C416.552 617.802 408.197 611.777 408.197 611.777C408.197 611.777 406.186 602.044 408.299 599.609C410.411 597.174 407.561 589.664 407.561 589.664C407.561 589.664 408.621 550.631 408.935 548.816C409.249 547.001 407.663 541.518 406.186 536.97C404.71 532.422 407.034 514.433 407.561 511.157C408.087 507.882 407.349 492.957 406.822 489.893C406.296 486.829 407.451 474.025 407.451 474.025C405.338 467.678 403.65 473.389 403.65 473.389L401.953 489.995L400.124 524.095C400.124 524.095 400.336 534.456 398.749 537.449C397.163 540.442 395.797 547.991 395.797 547.991L396.535 586.483C396.535 586.483 396.433 594.527 396.959 597.59C397.485 600.654 395.797 608.588 395.797 608.588C389.875 622.547 380.357 607.425 380.357 607.425C380.357 607.425 380.782 605.068 381.622 604.778C382.462 604.487 381.308 598.745 380.672 597.794C380.035 596.844 380.782 589.939 380.782 589.939C380.782 589.939 379.996 583.694 378.873 576.184C377.75 568.675 378.033 539.688 378.771 537.889C379.509 536.09 380.145 527.732 380.145 527.732C380.145 527.732 379.297 522.972 380.357 519.586C381.418 516.201 377.821 501.919 377.821 500.333C377.821 498.746 376.447 488.911 375.701 487.85C375.215 486.939 374.961 485.922 374.962 484.889C374.962 484.889 374.86 482.776 373.062 476.429C371.75 471.794 372.52 462.658 373.062 458.055C373.25 456.35 373.407 455.266 373.407 455.266C373.407 455.266 434.112 445.431 436.546 447.655C437.112 448.173 437.497 450.011 437.709 452.533C438.36 460.969 437.198 477.505 434.599 484.033Z" fill="#444053"/>
<path opacity="0.1" d="M411.652 531.558C411.935 531.558 418.633 532.124 421.076 531.629C423.518 531.134 411.652 531.558 411.652 531.558Z" fill="black"/>
<path opacity="0.1" d="M412.147 535.509C412.147 535.509 421.382 537.135 421.877 536.295C422.372 535.454 412.147 535.509 412.147 535.509Z" fill="black"/>
<path opacity="0.1" d="M383.876 533.82C383.876 533.82 388.666 534.032 391.273 535.226C393.88 536.42 383.876 533.82 383.876 533.82Z" fill="black"/>
<path d="M366.457 415.196C366.457 415.196 367.243 429.933 366.811 432.541C366.811 432.541 368.507 444.465 369.913 447.466C371.176 449.882 372.664 452.173 374.358 454.308L378.52 425.07L377.538 415.055L366.457 415.196Z" fill="#BE7C5E"/>
<path d="M410.176 348.056C419.171 348.056 426.463 340.762 426.463 331.764C426.463 322.766 419.171 315.472 410.176 315.472C401.18 315.472 393.888 322.766 393.888 331.764C393.888 340.762 401.18 348.056 410.176 348.056Z" fill="#EFB7B9"/>
<path d="M401.71 339.384C401.71 339.384 396.637 349.321 391.556 353.979C386.475 358.637 422.018 363.924 422.866 363.924C423.714 363.924 416.521 342.762 417.785 340.224C419.05 337.687 401.71 339.384 401.71 339.384Z" fill="#EFB7B9"/>
<path opacity="0.1" d="M437.669 452.611C436.874 453.221 435.996 453.716 435.062 454.08C428.575 456.618 421.523 460.145 416.725 458.731C411.927 457.317 401.804 458.731 401.804 458.731C401.804 458.731 381.386 457.042 377.271 458.024C375.889 458.44 374.42 458.47 373.023 458.11C373.211 456.406 373.368 455.321 373.368 455.321C373.368 455.321 434.073 445.487 436.507 447.71C437.073 448.228 437.457 450.027 437.669 452.611Z" fill="black"/>
<path d="M442.13 443.185C442.13 443.185 441.565 450.255 435.062 452.776C428.56 455.298 421.523 458.841 416.725 457.435C411.927 456.028 401.804 457.435 401.804 457.435C401.804 457.435 381.386 455.738 377.271 456.728C373.156 457.717 371.067 456.445 372.332 454.607C373.596 452.768 373.462 446.751 373.462 444.175C373.462 441.598 372.049 431.339 373.321 429.501C374.593 427.663 375.677 420.616 378.261 419.485C378.64 419.324 378.978 419.079 379.25 418.769C379.522 418.459 379.72 418.091 379.831 417.694C380.049 416.849 380.049 415.963 379.831 415.118C379.831 415.118 379.407 414.764 378.81 414.238C377.318 412.902 374.79 410.428 375.606 409.619C376.729 408.488 375.606 401.151 375.606 401.151C375.606 401.151 372.921 395.511 373.91 393.398C374.899 391.284 365.272 380.138 365.272 380.138C365.272 380.138 365.272 360.955 376.839 360.106C376.839 360.106 385.014 360.389 386.004 356.721C386.993 353.052 393.48 350.939 393.48 350.939L408.283 354.183C408.283 354.183 421.398 357.004 423.793 355.315C426.188 353.626 427.994 357.561 427.994 357.561C427.994 357.561 436.169 357.985 437.018 359.674C437.866 361.363 434.34 377.867 434.34 377.867C434.34 377.867 428.418 377.31 428.842 383.657C429.267 390.004 426.581 398.04 426.581 398.04C426.581 398.04 426.157 402.698 426.439 403.68C426.722 404.662 425.882 408.142 425.756 408.692V408.763C425.756 408.763 425.175 411.119 425.937 411.96C426.005 412.038 426.087 412.102 426.18 412.148C427.311 412.706 429.007 418.213 429.007 418.213C429.886 419.279 430.336 420.634 430.272 422.015C430.13 424.277 430.979 429.634 434.646 432.737C438.313 435.84 442.13 443.185 442.13 443.185Z" fill="#FFCA28"/>
<path d="M379.219 410.538V411.135L378.96 417.733C378.96 417.733 370.321 418.44 365.609 417.238C360.897 416.037 362.876 410.828 363.057 409.737C363.198 408.747 364.471 400.491 364.471 399.155C364.471 397.82 364.471 392.313 364.259 389.776C364.047 387.239 365.311 380.185 365.311 380.185L366.23 379.053L376.172 382.863L379.219 410.538Z" fill="#FFCA28"/>
<path opacity="0.1" d="M379.195 411.135L378.936 417.733C378.936 417.733 370.298 418.44 365.586 417.238C360.874 416.037 362.853 410.828 363.033 409.737L379.195 411.135Z" fill="black"/>
<path opacity="0.1" d="M379.823 417.702C380.041 416.857 380.041 415.97 379.823 415.125C379.823 415.125 379.399 414.772 378.802 414.246C386.279 413.209 415.846 409.147 425.811 408.747V408.818C425.811 408.818 425.23 411.174 425.992 412.015L379.823 417.702Z" fill="black"/>
<path opacity="0.1" d="M426.879 422.808C426.879 422.808 428.717 433.177 421.877 436.846C421.877 436.846 425.756 431.7 426.879 422.808Z" fill="black"/>
<path opacity="0.1" d="M382.109 437.128C382.109 437.128 398.6 434.308 401.851 436.492C405.103 438.676 382.109 437.128 382.109 437.128Z" fill="black"/>
<path opacity="0.1" d="M421.17 372.879C421.17 372.879 418.633 383.319 420.534 385.715C422.434 388.111 421.17 372.879 421.17 372.879Z" fill="black"/>
<path opacity="0.1" d="M373.368 364.348C373.368 364.348 375.724 368.221 374.287 372.243C372.85 376.265 373.368 364.348 373.368 364.348Z" fill="black"/>
<path d="M368.578 398.339C368.578 398.339 371.538 400.106 370.549 402.855C369.559 405.605 368.578 398.339 368.578 398.339Z" fill="#FFCA28"/>
<path opacity="0.1" d="M368.311 390.302C368.311 390.302 371.059 391.779 371.413 393.963C371.766 396.147 368.311 390.302 368.311 390.302Z" fill="black"/>
<path opacity="0.1" d="M409.045 474.646C409.045 474.646 426.322 476.413 429.769 472.289C429.769 472.32 414.189 475.392 409.045 474.646Z" fill="black"/>
<path opacity="0.1" d="M379.219 473.656C379.219 473.656 397.76 478.031 401.427 474.575C401.427 474.606 385.493 475.777 379.219 473.656Z" fill="black"/>
<path opacity="0.1" d="M410.38 480.356C410.38 480.356 418.139 480.356 421.735 480.569C425.332 480.781 410.38 480.356 410.38 480.356Z" fill="black"/>
<path opacity="0.1" d="M380.491 483.672C380.491 483.672 384.3 487.976 388.595 487.199C392.891 486.421 380.491 483.672 380.491 483.672Z" fill="black"/>
<path d="M387.944 307.491C386.75 309.345 386.711 311.489 386.373 313.548C385.518 318.581 383.158 323.237 379.604 326.902C376.227 330.499 371.585 333.759 370.706 338.151C369.881 342.322 372.693 346.336 374.169 350.397C378.096 361.104 372.599 372.337 371.028 383.39C370.588 386.445 371.114 390.35 374.876 391.363C376.054 391.677 377.397 391.638 378.457 392.149C379.871 392.824 380.302 394.238 380.562 395.503C381.508 400.044 381.835 404.692 381.535 409.32C381.363 411.92 381.174 414.906 383.624 416.697C384.876 417.468 386.252 418.016 387.692 418.315C391.556 419.36 396.551 420.184 399.158 417.749C400.249 416.728 400.658 415.283 402.024 414.473C404.066 413.264 406.964 414.081 409.532 414.206C411.968 414.308 414.387 413.752 416.535 412.598C418.683 411.444 420.482 409.734 421.743 407.647C423.824 403.892 423.644 399.635 422.874 395.597C422.105 391.559 420.769 387.569 420.675 383.484C420.552 382.056 420.87 380.625 421.586 379.384C423.157 376.948 426.809 375.841 429.314 373.932C434.026 370.35 433.978 364.505 432.282 359.557C430.586 354.608 427.515 349.942 427.138 344.859C426.972 343.632 427.215 342.384 427.829 341.308C428.677 340.312 429.657 339.437 430.743 338.708C437.583 332.935 436.774 323.445 431.12 316.957C424.853 309.73 396.503 294.231 387.944 307.491Z" fill="#333333"/>
<g opacity="0.1">
<path opacity="0.1" d="M375.088 354.906C375.754 350.641 375.383 346.279 374.004 342.188C373.266 340.138 372.182 338.103 371.389 336.053C371 336.796 370.714 337.589 370.541 338.41C369.716 342.581 372.528 346.595 374.004 350.656C374.506 352.033 374.869 353.457 375.088 354.906Z" fill="black"/>
<path opacity="0.1" d="M381.386 401.111C381.686 396.483 381.358 391.835 380.412 387.294C380.153 386.029 379.721 384.615 378.308 383.94C377.248 383.429 375.905 383.468 374.727 383.154C374.009 382.977 373.34 382.639 372.77 382.167C372.2 381.695 371.744 381.101 371.436 380.428C371.224 381.497 371.036 382.573 370.879 383.641C370.439 386.697 370.965 390.601 374.727 391.614C375.905 391.928 377.248 391.889 378.308 392.4C379.721 393.083 380.153 394.489 380.412 395.762C380.848 397.867 381.152 399.997 381.323 402.141C381.339 401.795 381.363 401.449 381.386 401.111Z" fill="black"/>
<path opacity="0.1" d="M421.594 399.438C420.333 401.526 418.535 403.237 416.386 404.391C414.238 405.545 411.819 406.1 409.382 405.997C406.815 405.872 403.885 405.055 401.875 406.265C400.516 407.05 400.1 408.519 399.009 409.54C396.401 411.975 391.407 411.151 387.543 410.106C386.104 409.809 384.729 409.259 383.483 408.48C382.418 407.696 381.698 406.531 381.473 405.228C381.473 406.673 381.473 408.126 381.386 409.572C381.213 412.172 381.025 415.157 383.483 416.948C384.731 417.72 386.106 418.268 387.543 418.566C391.407 419.611 396.401 420.436 399.009 418.008C400.1 416.979 400.516 415.534 401.875 414.725C403.917 413.515 406.815 414.332 409.382 414.458C411.819 414.56 414.238 414.005 416.386 412.851C418.535 411.697 420.333 409.986 421.594 407.898C423.597 404.293 423.51 400.216 422.811 396.32C422.544 397.408 422.135 398.457 421.594 399.438Z" fill="black"/>
<path opacity="0.1" d="M430.531 330.437C429.46 331.185 428.5 332.082 427.68 333.1C427.066 334.175 426.823 335.423 426.989 336.65C427.127 338.195 427.455 339.717 427.963 341.183C428.746 340.343 429.606 339.578 430.531 338.897C435.156 334.969 436.279 329.392 434.779 324.168C433.99 326.62 432.516 328.795 430.531 330.437Z" fill="black"/>
<path opacity="0.1" d="M429.164 365.723C426.659 367.632 423.008 368.739 421.437 371.167C420.723 372.412 420.406 373.845 420.526 375.275C420.587 376.926 420.789 378.568 421.131 380.185C421.217 379.993 421.32 379.809 421.437 379.635C423.008 377.2 426.659 376.092 429.164 374.183C433.437 370.907 433.798 365.731 432.533 361.112C431.886 362.946 430.715 364.549 429.164 365.723Z" fill="black"/>
</g>
<path d="M461.362 367.451C458.472 374.788 454.726 377.663 454.726 377.663H452.645L434.355 377.852L432.243 372.07L435.203 359.588L437.033 359.659C438.133 360.241 439.327 360.624 440.559 360.79C441.902 360.79 444.486 360.719 445.271 361.073C445.38 361.119 445.499 361.136 445.617 361.12C446.308 361.049 447.03 360.012 447.03 360.012C447.03 360.012 464.244 360.114 461.362 367.451Z" fill="#FFD037"/>
<path opacity="0.1" d="M461.362 367.451C458.472 374.788 454.726 377.663 454.726 377.663H452.645C453.737 374.757 456.022 368.794 456.917 367.451C457.813 366.108 450.109 362.903 445.632 361.167C446.324 361.096 447.046 360.059 447.046 360.059C447.046 360.059 464.244 360.114 461.362 367.451Z" fill="black"/>
<defs>
<linearGradient id="paint0_linear" x1="451.067" y1="373.17" x2="451.067" y2="303.461" gradientUnits="userSpaceOnUse">
<stop stop-color="#808080" stop-opacity="0.25"/>
<stop offset="0.54" stop-color="#808080" stop-opacity="0.12"/>
<stop offset="1" stop-color="#808080" stop-opacity="0.1"/>
</linearGradient>
<linearGradient id="paint1_linear" x1="12534.6" y1="14699.3" x2="12534.6" y2="14346.2" gradientUnits="userSpaceOnUse">
<stop stop-color="#808080" stop-opacity="0.25"/>
<stop offset="0.54" stop-color="#808080" stop-opacity="0.12"/>
<stop offset="1" stop-color="#808080" stop-opacity="0.1"/>
</linearGradient>
<linearGradient id="paint2_linear" x1="11816.2" y1="14631.4" x2="11816.2" y2="14278.2" gradientUnits="userSpaceOnUse">
<stop stop-color="#808080" stop-opacity="0.25"/>
<stop offset="0.54" stop-color="#808080" stop-opacity="0.12"/>
<stop offset="1" stop-color="#808080" stop-opacity="0.1"/>
</linearGradient>
<linearGradient id="paint3_linear" x1="7387.93" y1="5968.85" x2="7387.93" y2="5916.54" gradientUnits="userSpaceOnUse">
<stop stop-color="#808080" stop-opacity="0.25"/>
<stop offset="0.54" stop-color="#808080" stop-opacity="0.12"/>
<stop offset="1" stop-color="#808080" stop-opacity="0.1"/>
</linearGradient>
<linearGradient id="paint4_linear" x1="8320.16" y1="6177.43" x2="8320.16" y2="6120.83" gradientUnits="userSpaceOnUse">
<stop stop-color="#808080" stop-opacity="0.25"/>
<stop offset="0.54" stop-color="#808080" stop-opacity="0.12"/>
<stop offset="1" stop-color="#808080" stop-opacity="0.1"/>
</linearGradient>
<linearGradient id="paint5_linear" x1="39333.8" y1="141132" x2="39333.8" y2="104988" gradientUnits="userSpaceOnUse">
<stop stop-color="#808080" stop-opacity="0.25"/>
<stop offset="0.54" stop-color="#808080" stop-opacity="0.12"/>
<stop offset="1" stop-color="#808080" stop-opacity="0.1"/>
</linearGradient>
<linearGradient id="paint6_linear" x1="6378.25" y1="858.596" x2="6378.25" y2="858.34" gradientUnits="userSpaceOnUse">
<stop stop-color="#808080" stop-opacity="0.25"/>
<stop offset="0.54" stop-color="#808080" stop-opacity="0.12"/>
<stop offset="1" stop-color="#808080" stop-opacity="0.1"/>
</linearGradient>
<linearGradient id="paint7_linear" x1="6359.45" y1="1292.36" x2="6359.45" y2="1291.01" gradientUnits="userSpaceOnUse">
<stop stop-color="#808080" stop-opacity="0.25"/>
<stop offset="0.54" stop-color="#808080" stop-opacity="0.12"/>
<stop offset="1" stop-color="#808080" stop-opacity="0.1"/>
</linearGradient>
<linearGradient id="paint8_linear" x1="4861.82" y1="1809.49" x2="4861.82" y2="1805.65" gradientUnits="userSpaceOnUse">
<stop stop-color="#808080" stop-opacity="0.25"/>
<stop offset="0.54" stop-color="#808080" stop-opacity="0.12"/>
<stop offset="1" stop-color="#808080" stop-opacity="0.1"/>
</linearGradient>
<linearGradient id="paint9_linear" x1="7007.05" y1="25342.6" x2="7007.05" y2="23346.1" gradientUnits="userSpaceOnUse">
<stop stop-color="#808080" stop-opacity="0.25"/>
<stop offset="0.54" stop-color="#808080" stop-opacity="0.12"/>
<stop offset="1" stop-color="#808080" stop-opacity="0.1"/>
</linearGradient>
<linearGradient id="paint10_linear" x1="17684.2" y1="14773.7" x2="17684.2" y2="13399.9" gradientUnits="userSpaceOnUse">
<stop stop-color="#808080" stop-opacity="0.25"/>
<stop offset="0.54" stop-color="#808080" stop-opacity="0.12"/>
<stop offset="1" stop-color="#808080" stop-opacity="0.1"/>
</linearGradient>
<linearGradient id="paint11_linear" x1="19406.1" y1="13325.2" x2="19406.1" y2="12510.2" gradientUnits="userSpaceOnUse">
<stop stop-color="#808080" stop-opacity="0.25"/>
<stop offset="0.54" stop-color="#808080" stop-opacity="0.12"/>
<stop offset="1" stop-color="#808080" stop-opacity="0.1"/>
</linearGradient>
<linearGradient id="paint12_linear" x1="38810.3" y1="7906.88" x2="38810.3" y2="7731.35" gradientUnits="userSpaceOnUse">
<stop stop-color="#808080" stop-opacity="0.25"/>
<stop offset="0.54" stop-color="#808080" stop-opacity="0.12"/>
<stop offset="1" stop-color="#808080" stop-opacity="0.1"/>
</linearGradient>
<linearGradient id="paint13_linear" x1="45874.6" y1="68598.6" x2="45874.6" y2="53835.6" gradientUnits="userSpaceOnUse">
<stop stop-color="#808080" stop-opacity="0.25"/>
<stop offset="0.54" stop-color="#808080" stop-opacity="0.12"/>
<stop offset="1" stop-color="#808080" stop-opacity="0.1"/>
</linearGradient>
<linearGradient id="paint14_linear" x1="9576.74" y1="23205.3" x2="9576.74" y2="21248" gradientUnits="userSpaceOnUse">
<stop stop-color="#808080" stop-opacity="0.25"/>
<stop offset="0.54" stop-color="#808080" stop-opacity="0.12"/>
<stop offset="1" stop-color="#808080" stop-opacity="0.1"/>
</linearGradient>
<linearGradient id="paint15_linear" x1="9576.4" y1="5228.63" x2="9576.4" y2="5141.52" gradientUnits="userSpaceOnUse">
<stop stop-color="#808080" stop-opacity="0.25"/>
<stop offset="0.54" stop-color="#808080" stop-opacity="0.12"/>
<stop offset="1" stop-color="#808080" stop-opacity="0.1"/>
</linearGradient>
<linearGradient id="paint16_linear" x1="28247.7" y1="5691.09" x2="28247.7" y2="5586.3" gradientUnits="userSpaceOnUse">
<stop stop-color="#808080" stop-opacity="0.25"/>
<stop offset="0.54" stop-color="#808080" stop-opacity="0.12"/>
<stop offset="1" stop-color="#808080" stop-opacity="0.1"/>
</linearGradient>
<linearGradient id="paint17_linear" x1="3663.08" y1="9003.71" x2="3663.08" y2="8748.91" gradientUnits="userSpaceOnUse">
<stop stop-color="#808080" stop-opacity="0.25"/>
<stop offset="0.54" stop-color="#808080" stop-opacity="0.12"/>
<stop offset="1" stop-color="#808080" stop-opacity="0.1"/>
</linearGradient>
<linearGradient id="paint18_linear" x1="11957.5" y1="1657.73" x2="11957.5" y2="1652.58" gradientUnits="userSpaceOnUse">
<stop stop-color="#808080" stop-opacity="0.25"/>
<stop offset="0.54" stop-color="#808080" stop-opacity="0.12"/>
<stop offset="1" stop-color="#808080" stop-opacity="0.1"/>
</linearGradient>
<linearGradient id="paint19_linear" x1="1498.39" y1="7518.99" x2="1498.39" y2="7297.29" gradientUnits="userSpaceOnUse">
<stop stop-color="#808080" stop-opacity="0.25"/>
<stop offset="0.54" stop-color="#808080" stop-opacity="0.12"/>
<stop offset="1" stop-color="#808080" stop-opacity="0.1"/>
</linearGradient>
<linearGradient id="paint20_linear" x1="1173.44" y1="4980.99" x2="1173.44" y2="4882.4" gradientUnits="userSpaceOnUse">
<stop stop-color="#808080" stop-opacity="0.25"/>
<stop offset="0.54" stop-color="#808080" stop-opacity="0.12"/>
<stop offset="1" stop-color="#808080" stop-opacity="0.1"/>
</linearGradient>
<linearGradient id="paint21_linear" x1="1557.56" y1="3320.31" x2="1557.56" y2="3286.1" gradientUnits="userSpaceOnUse">
<stop stop-color="#808080" stop-opacity="0.25"/>
<stop offset="0.54" stop-color="#808080" stop-opacity="0.12"/>
<stop offset="1" stop-color="#808080" stop-opacity="0.1"/>
</linearGradient>
<linearGradient id="paint22_linear" x1="2073.84" y1="2704.29" x2="2073.84" y2="2681.91" gradientUnits="userSpaceOnUse">
<stop stop-color="#808080" stop-opacity="0.25"/>
<stop offset="0.54" stop-color="#808080" stop-opacity="0.12"/>
<stop offset="1" stop-color="#808080" stop-opacity="0.1"/>
</linearGradient>
<linearGradient id="paint23_linear" x1="13118.1" y1="2267.48" x2="13118.1" y2="2257.98" gradientUnits="userSpaceOnUse">
<stop stop-color="#808080" stop-opacity="0.25"/>
<stop offset="0.54" stop-color="#808080" stop-opacity="0.12"/>
<stop offset="1" stop-color="#808080" stop-opacity="0.1"/>
</linearGradient>
<linearGradient id="paint24_linear" x1="13143" y1="1958.97" x2="13143" y2="1952.45" gradientUnits="userSpaceOnUse">
<stop stop-color="#808080" stop-opacity="0.25"/>
<stop offset="0.54" stop-color="#808080" stop-opacity="0.12"/>
<stop offset="1" stop-color="#808080" stop-opacity="0.1"/>
</linearGradient>
<linearGradient id="paint25_linear" x1="7667.54" y1="659.206" x2="7667.54" y2="659.114" gradientUnits="userSpaceOnUse">
<stop stop-color="#808080" stop-opacity="0.25"/>
<stop offset="0.54" stop-color="#808080" stop-opacity="0.12"/>
<stop offset="1" stop-color="#808080" stop-opacity="0.1"/>
</linearGradient>
<linearGradient id="paint26_linear" x1="5495.65" y1="2935.59" x2="5495.65" y2="2918.6" gradientUnits="userSpaceOnUse">
<stop stop-color="#808080" stop-opacity="0.25"/>
<stop offset="0.54" stop-color="#808080" stop-opacity="0.12"/>
<stop offset="1" stop-color="#808080" stop-opacity="0.1"/>
</linearGradient>
<linearGradient id="paint27_linear" x1="38839" y1="69310.8" x2="38839" y2="51570.4" gradientUnits="userSpaceOnUse">
<stop stop-color="#808080" stop-opacity="0.25"/>
<stop offset="0.54" stop-color="#808080" stop-opacity="0.12"/>
<stop offset="1" stop-color="#808080" stop-opacity="0.1"/>
</linearGradient>
<linearGradient id="paint28_linear" x1="3136.7" y1="9873.1" x2="3136.7" y2="9413.06" gradientUnits="userSpaceOnUse">
<stop stop-color="#808080" stop-opacity="0.25"/>
<stop offset="0.54" stop-color="#808080" stop-opacity="0.12"/>
<stop offset="1" stop-color="#808080" stop-opacity="0.1"/>
</linearGradient>
<linearGradient id="paint29_linear" x1="6347" y1="12687.3" x2="6347" y2="12077.3" gradientUnits="userSpaceOnUse">
<stop stop-color="#808080" stop-opacity="0.25"/>
<stop offset="0.54" stop-color="#808080" stop-opacity="0.12"/>
<stop offset="1" stop-color="#808080" stop-opacity="0.1"/>
</linearGradient>
<linearGradient id="paint30_linear" x1="25163.5" y1="14118.1" x2="25163.5" y2="13417.1" gradientUnits="userSpaceOnUse">
<stop stop-color="#808080" stop-opacity="0.25"/>
<stop offset="0.54" stop-color="#808080" stop-opacity="0.12"/>
<stop offset="1" stop-color="#808080" stop-opacity="0.1"/>
</linearGradient>
<linearGradient id="paint31_linear" x1="5748.31" y1="8628.54" x2="5748.31" y2="8253.85" gradientUnits="userSpaceOnUse">
<stop stop-color="#808080" stop-opacity="0.25"/>
<stop offset="0.54" stop-color="#808080" stop-opacity="0.12"/>
<stop offset="1" stop-color="#808080" stop-opacity="0.1"/>
</linearGradient>
<linearGradient id="paint32_linear" x1="8314.73" y1="10636.8" x2="8314.73" y2="10165.8" gradientUnits="userSpaceOnUse">
<stop stop-color="#808080" stop-opacity="0.25"/>
<stop offset="0.54" stop-color="#808080" stop-opacity="0.12"/>
<stop offset="1" stop-color="#808080" stop-opacity="0.1"/>
</linearGradient>
<linearGradient id="paint33_linear" x1="19554.2" y1="10131.9" x2="19554.2" y2="9700.7" gradientUnits="userSpaceOnUse">
<stop stop-color="#808080" stop-opacity="0.25"/>
<stop offset="0.54" stop-color="#808080" stop-opacity="0.12"/>
<stop offset="1" stop-color="#808080" stop-opacity="0.1"/>
</linearGradient>
<linearGradient id="paint34_linear" x1="11014.6" y1="9810.89" x2="11014.6" y2="9407.54" gradientUnits="userSpaceOnUse">
<stop stop-color="#808080" stop-opacity="0.25"/>
<stop offset="0.54" stop-color="#808080" stop-opacity="0.12"/>
<stop offset="1" stop-color="#808080" stop-opacity="0.1"/>
</linearGradient>
</defs>
</svg>
